<?xml version="1.0" encoding="UTF-8"?><svg version="1.1" xmlns="http://www.w3.org/2000/svg" xmlns:xlink="http://www.w3.org/1999/xlink" viewBox="1000,1000,200,200"><g id="__YNDW_SZDG__g54925" transform="matrix(3.5433071,0,0,3.5433071,0,0)" xmlns="http://www.w3.org/2000/svg"><g id="__YNDW_SZDG__g70717-6"><path style="opacity:1;fill:#c8c8c8;fill-opacity:1;stroke:#000000;stroke-width:0;stroke-dasharray:none;stroke-opacity:1;paint-order:fill markers stroke" d="m 296.299015098483 290.09505451637 0.61133 -0.242737 0.89691 -0.03124 1.09418 0.91683 -3.94188 0.109554" id="__YNDW_SZDG__path70648-6" /><path style="opacity:1;fill:#b8b8b8;fill-opacity:1;stroke:#000000;stroke-width:0;stroke-dasharray:none;stroke-opacity:1;paint-order:fill markers stroke" d="m 296.234655098483 286.51818051637 0.68988 0.806822 -2E-05 2.531541 -0.71327 0.274787" id="__YNDW_SZDG__path70644-7" /><path style="opacity:1;fill:#cccccc;fill-opacity:1;stroke:#000000;stroke-width:0;stroke-dasharray:none;stroke-opacity:1;paint-order:fill markers stroke" d="m 294.880475098483 284.74083951637 1.43603 1.333005 -0.0187 4.022408 -1.45468 0.841899" id="__YNDW_SZDG__path70642-7" /><path style="opacity:1;fill:#b8b8b8;fill-opacity:1;stroke:#000000;stroke-width:0;stroke-dasharray:none;stroke-opacity:1;paint-order:fill markers stroke" d="m 283.069845098483 283.15387651637 11.14557 -0.892968 c 0.40089 -0.03869 0.49428 0.353116 0.69454 0.595312 l 0.0935 9.610234 -11.74392 -0.633775 c -0.41706 -0.06665 -0.86083 -0.05981 -1.0373 -0.788075 l 0.35148 -7.130051 c 0.003 -0.383123 0.18099 -0.626926 0.49613 -0.760677 z" id="__YNDW_SZDG__path70592-06" /><path style="fill:#7e7e7e;fill-opacity:1;stroke:#000000;stroke-width:0;stroke-dasharray:none;stroke-opacity:1;paint-order:fill markers stroke" d="m 283.521085098483 283.54433251637 10.18708 -0.819303 c 0.45001 0.0033 0.52552 0.287403 0.63481 0.546202 l 0.0854 8.817445 -10.73398 -0.581492 c -0.42627 -0.112404 -0.88373 -0.188423 -0.94809 -0.723064 l 0.32126 -6.541862 c -0.0564 -0.262302 0.0736 -0.497956 0.45352 -0.697926 z" id="__YNDW_SZDG__path70592-0-6" /><path style="fill:#d5d5d5;fill-opacity:1;stroke:#000000;stroke-width:0;stroke-dasharray:none;stroke-opacity:1;paint-order:fill markers stroke" d="m 284.043045098483 283.97493051637 9.20821 -0.735407 c 0.21852 0.04079 0.44097 0.06391 0.57381 0.490272 l 0.0772 7.914546 -9.70255 -0.521948 c -0.4126 -0.07127 -0.86611 -0.09579 -0.85699 -0.649023 l 0.29039 -5.871981 c -0.0622 -0.407657 0.16639 -0.524535 0.40993 -0.626459 z" id="__YNDW_SZDG__path70592-0-1-6" /><path style="opacity:1;fill:#cccccc;fill-opacity:1;stroke:#000000;stroke-width:0;stroke-dasharray:none;stroke-opacity:1;paint-order:fill markers stroke" d="m 285.586295098483 284.69592951637 6.66504 -0.374176 -2.6894 2.736172 -1.40317 -0.04677" id="__YNDW_SZDG__path70638-7" /><path style="opacity:1;fill:#cccccc;fill-opacity:1;stroke:#000000;stroke-width:0;stroke-dasharray:none;stroke-opacity:1;paint-order:fill markers stroke" d="m 288.130005098483 287.99905951637 1.37252 0 2.92696 3.108854 -7.72253 -0.347266" id="__YNDW_SZDG__path70640-3" /><path style="opacity:1;fill:#dadada;fill-opacity:1;stroke:#000000;stroke-width:0;stroke-dasharray:none;stroke-opacity:1;paint-order:fill markers stroke" d="m 295.918935098483 287.26653451637 3.41554 2.75046 -0.43381 0.734067 -3.42607 -2.899874 c -0.0146 -0.386308 0.19728 -0.506176 0.44434 -0.584653 z" id="__YNDW_SZDG__path70646-1" /><ellipse style="opacity:1;fill:#c8c8c8;fill-opacity:1;stroke:#000000;stroke-width:0;stroke-dasharray:none;stroke-opacity:1;paint-order:fill markers stroke" id="__YNDW_SZDG__path70702-4" cx="296.013765098483" cy="287.75928351637" rx="0.24391276" ry="0.24804688" /><path style="opacity:1;fill:#a9a9a9;fill-opacity:1;stroke:#000000;stroke-width:0;stroke-dasharray:none;stroke-opacity:1;paint-order:fill markers stroke" d="m 296.293115098483 290.08455751637 1.04068 0 c 0.14107 0.0094 0.26138 0.04646 0.30402 0.18709 l -0.14232 0.24685 -1.76364 -0.08315 z" id="__YNDW_SZDG__path70704-5" /></g><g id="__YNDW_SZDG__g54757"><path style="fill:#1a1a1a;fill-opacity:1;stroke:#000000;stroke-width:0" d="m 290.851914098483 292.85994901637 4.068348 -0.0078 -2.054095 -3.116573" id="__YNDW_SZDG__path21026-2-3-0" /><path style="fill:#ffff00;fill-opacity:1;stroke:#000000;stroke-width:0" d="m 291.025878098483 292.75514301637 3.705237 -0.01107 -1.858331 -2.811285" id="__YNDW_SZDG__path21026-27-8" /><path style="fill:#1a1a1a;fill-opacity:1;stroke:#3f90d5;stroke-width:0;stroke-dasharray:none;stroke-opacity:0" id="__YNDW_SZDG__path54608" d="m 293.027563098483 -292.42171801637 a 0.2313066 0.18426119 0 0 1 -0.225895 0.185918 0.2313066 0.18426119 0 0 1 -0.236546 -0.177312 0.2313066 0.18426119 0 0 1 0.219229 -0.190915 0.2313066 0.18426119 0 0 1 0.242724 0.171932" transform="matrix(1,0,0,-1,0,0)" /><path style="fill:#1a1a1a;fill-opacity:1;stroke:#3f90d5;stroke-width:0;stroke-dasharray:none;stroke-opacity:0" d="m 292.795483098483 292.13032201637 0.0047 -0.000368 0.376365 -1.234943 c -0.232613 -0.232561 -0.465227 -0.287495 -0.69784 0.01175 z" id="__YNDW_SZDG__path54664" /></g></g><g id="__YNDW_SZDG__g27798" transform="matrix(3.5433071,0,0,3.5433071,0,0)" xmlns="http://www.w3.org/2000/svg"><path style="fill:#6cff6c;fill-opacity:1;stroke:#000000;stroke-width:0;stroke-dasharray:none;stroke-opacity:1;paint-order:fill markers stroke" d="m 296.2990030495 290.291806062149 0.61133 -0.24274 0.89691 -0.0312 1.09418 0.91683 -3.94188 0.10956" id="__YNDW_SZDG__path70648-5" /><path style="fill:#00c600;fill-opacity:1;stroke:#000000;stroke-width:0;stroke-dasharray:none;stroke-opacity:1;paint-order:fill markers stroke" d="m 296.2346430495 286.714936062149 0.68988 0.80682 -2E-05 2.53154 -0.71327 0.27479" id="__YNDW_SZDG__path70644-2" /><path style="fill:#00fb00;fill-opacity:1;stroke:#000000;stroke-width:0;stroke-dasharray:none;stroke-opacity:1;paint-order:fill markers stroke" d="m 294.8804630495 284.937586062149 1.43603 1.33301 -0.0187 4.02241 -1.45468 0.8419" id="__YNDW_SZDG__path70642-4" /><path style="fill:#00d500;fill-opacity:1;stroke:#000000;stroke-width:0;stroke-dasharray:none;stroke-opacity:1;paint-order:fill markers stroke" d="m 283.0698330495 283.350626062149 11.14557 -0.89297 c 0.40089 -0.0387 0.49428 0.35312 0.69454 0.59532 l 0.0935 9.61023 -11.74392 -0.63378 c -0.41706 -0.0666 -0.86083 -0.0598 -1.0373 -0.78807 l 0.35148 -7.13005 c 0.003 -0.38312 0.18099 -0.62693 0.49613 -0.76068 z" id="__YNDW_SZDG__path70592-4" /><path style="fill:#00a200;fill-opacity:1;stroke:#000000;stroke-width:0;stroke-dasharray:none;stroke-opacity:1;paint-order:fill markers stroke" d="m 283.5210730495 283.741086062149 10.18708 -0.8193 c 0.45001 0.003 0.52552 0.2874 0.63481 0.5462 l 0.0854 8.81744 -10.73398 -0.58149 c -0.42627 -0.1124 -0.88373 -0.18842 -0.94809 -0.72306 l 0.32126 -6.54187 c -0.0564 -0.2623 0.0736 -0.49795 0.45352 -0.69792 z" id="__YNDW_SZDG__path70592-0-7" /><path style="fill:#83ff83;fill-opacity:1;stroke:#000000;stroke-width:0;stroke-dasharray:none;stroke-opacity:1;paint-order:fill markers stroke" d="m 284.0430330495 284.171686062149 9.20821 -0.73541 c 0.21852 0.0408 0.44097 0.0639 0.57381 0.49027 l 0.0772 7.91455 -9.70255 -0.52195 c -0.4126 -0.0713 -0.86611 -0.0958 -0.85699 -0.64902 l 0.29039 -5.87198 c -0.0622 -0.40766 0.16639 -0.52454 0.40993 -0.62646 z" id="__YNDW_SZDG__path70592-0-1-3" /><path style="fill:#00ff00;fill-opacity:1;stroke:#000000;stroke-width:0;stroke-dasharray:none;stroke-opacity:1;paint-order:fill markers stroke" d="m 285.5862830495 284.892686062149 6.66504 -0.37418 -2.6894 2.73617 -1.40317 -0.0468" id="__YNDW_SZDG__path70638-8" /><path style="fill:#00ff00;fill-opacity:1;stroke:#000000;stroke-width:0;stroke-dasharray:none;stroke-opacity:1;paint-order:fill markers stroke" d="m 288.1299930495 288.195806062149 1.37252 0 2.92696 3.10886 -7.72253 -0.34727" id="__YNDW_SZDG__path70640-6" /><path style="fill:#00ec00;fill-opacity:1;stroke:#000000;stroke-width:0;stroke-dasharray:none;stroke-opacity:1;paint-order:fill markers stroke" d="m 295.9189230495 287.463286062149 3.41554 2.75046 -0.43381 0.73407 -3.42607 -2.89988 c -0.0146 -0.3863 0.19728 -0.50617 0.44434 -0.58465 z" id="__YNDW_SZDG__path70646-2" /><ellipse style="fill:#00d800;fill-opacity:1;stroke:#000000;stroke-width:0;stroke-dasharray:none;stroke-opacity:1;paint-order:fill markers stroke" id="__YNDW_SZDG__path70702-8" cx="296.0137560495" cy="287.956036062149" rx="0.24391276" ry="0.24804688" /><path style="fill:#00c800;fill-opacity:1;stroke:#000000;stroke-width:0;stroke-dasharray:none;stroke-opacity:1;paint-order:fill markers stroke" d="m 296.2931030495 290.281306062149 1.04068 0 c 0.14107 0.009 0.26138 0.0465 0.30402 0.18709 l -0.14232 0.24685 -1.76364 -0.0832 z" id="__YNDW_SZDG__path70704-4" /></g><g id="__YNDW_SZDG__g70717" transform="matrix(3.5433071,0,0,3.5433071,0,0)" xmlns="http://www.w3.org/2000/svg"><path style="opacity:1;fill:#c8c8c8;fill-opacity:1;stroke:#000000;stroke-width:0;stroke-dasharray:none;stroke-opacity:1;paint-order:fill markers stroke" d="m 296.299002500164 290.291802836066 0.61133 -0.242737 0.89691 -0.03124 1.09418 0.91683 -3.94188 0.109554" id="__YNDW_SZDG__path70648" /><path style="opacity:1;fill:#b8b8b8;fill-opacity:1;stroke:#000000;stroke-width:0;stroke-dasharray:none;stroke-opacity:1;paint-order:fill markers stroke" d="m 296.234642500164 286.714928836066 0.68988 0.806822 -2E-05 2.531541 -0.71327 0.274787" id="__YNDW_SZDG__path70644" /><path style="opacity:1;fill:#cccccc;fill-opacity:1;stroke:#000000;stroke-width:0;stroke-dasharray:none;stroke-opacity:1;paint-order:fill markers stroke" d="m 294.880462500164 284.937587836066 1.43603 1.333005 -0.0187 4.022408 -1.45468 0.841899" id="__YNDW_SZDG__path70642" /><path style="opacity:1;fill:#b8b8b8;fill-opacity:1;stroke:#000000;stroke-width:0;stroke-dasharray:none;stroke-opacity:1;paint-order:fill markers stroke" d="m 283.069832500164 283.350624836066 11.14557 -0.892968 c 0.40089 -0.03869 0.49428 0.353116 0.69454 0.595312 l 0.0935 9.610234 -11.74392 -0.633775 c -0.41706 -0.06665 -0.86083 -0.05981 -1.0373 -0.788075 l 0.35148 -7.130051 c 0.003 -0.383123 0.18099 -0.626926 0.49613 -0.760677 z" id="__YNDW_SZDG__path70592" /><path style="fill:#7e7e7e;fill-opacity:1;stroke:#000000;stroke-width:0;stroke-dasharray:none;stroke-opacity:1;paint-order:fill markers stroke" d="m 283.521072500164 283.741080836066 10.18708 -0.819303 c 0.45001 0.0033 0.52552 0.287403 0.63481 0.546202 l 0.0854 8.817445 -10.73398 -0.581492 c -0.42627 -0.112404 -0.88373 -0.188423 -0.94809 -0.723064 l 0.32126 -6.541862 c -0.0564 -0.262302 0.0736 -0.497956 0.45352 -0.697926 z" id="__YNDW_SZDG__path70592-0" /><path style="fill:#d5d5d5;fill-opacity:1;stroke:#000000;stroke-width:0;stroke-dasharray:none;stroke-opacity:1;paint-order:fill markers stroke" d="m 284.043032500164 284.171678836066 9.20821 -0.735407 c 0.21852 0.04079 0.44097 0.06391 0.57381 0.490272 l 0.0772 7.914546 -9.70255 -0.521948 c -0.4126 -0.07127 -0.86611 -0.09579 -0.85699 -0.649023 l 0.29039 -5.871981 c -0.0622 -0.407657 0.16639 -0.524535 0.40993 -0.626459 z" id="__YNDW_SZDG__path70592-0-1" /><path style="opacity:1;fill:#cccccc;fill-opacity:1;stroke:#000000;stroke-width:0;stroke-dasharray:none;stroke-opacity:1;paint-order:fill markers stroke" d="m 285.586282500164 284.892677836066 6.66504 -0.374176 -2.6894 2.736172 -1.40317 -0.04677" id="__YNDW_SZDG__path70638" /><path style="opacity:1;fill:#cccccc;fill-opacity:1;stroke:#000000;stroke-width:0;stroke-dasharray:none;stroke-opacity:1;paint-order:fill markers stroke" d="m 288.129992500164 288.195807836066 1.37252 0 2.92696 3.108854 -7.72253 -0.347266" id="__YNDW_SZDG__path70640" /><path style="opacity:1;fill:#dadada;fill-opacity:1;stroke:#000000;stroke-width:0;stroke-dasharray:none;stroke-opacity:1;paint-order:fill markers stroke" d="m 295.918922500164 287.463282836066 3.41554 2.75046 -0.43381 0.734067 -3.42607 -2.899874 c -0.0146 -0.386308 0.19728 -0.506176 0.44434 -0.584653 z" id="__YNDW_SZDG__path70646" /><ellipse style="opacity:1;fill:#c8c8c8;fill-opacity:1;stroke:#000000;stroke-width:0;stroke-dasharray:none;stroke-opacity:1;paint-order:fill markers stroke" id="__YNDW_SZDG__path70702" cx="296.013752500164" cy="287.956031836066" rx="0.24391276" ry="0.24804688" /><path style="opacity:1;fill:#a9a9a9;fill-opacity:1;stroke:#000000;stroke-width:0;stroke-dasharray:none;stroke-opacity:1;paint-order:fill markers stroke" d="m 296.293102500164 290.281305836066 1.04068 0 c 0.14107 0.0094 0.26138 0.04646 0.30402 0.18709 l -0.14232 0.24685 -1.76364 -0.08315 z" id="__YNDW_SZDG__path70704" /></g></svg>