<?xml version="1.0" encoding="UTF-8"?>
<svg version="1.1" xmlns="http://www.w3.org/2000/svg" xmlns:xlink="http://www.w3.org/1999/xlink" viewBox="1000,1000,200,200">
  <g id="__YNDW_SHFJ__g10799" transform="matrix(1,0,0,1,0,0)" xmlns="http://www.w3.org/2000/svg">
    <desc id="__YNDW_SHFJ__desc10801">运行</desc>
    <path id="__YNDW_SHFJ__path10803" d="m 1021.35537353516 1003.15997845215 c -0.0393 0.0131 -0.0783 0.0248 -0.11757 0.038 l 0 -0.038 0.11757 0 z m 6.58069 0.48586 c 1.38399 0.41734 3.16282 0.95495 5.09391 1.97401 1.52832 0.80651 3.01091 1.93165 4.38243 3.0399 -0.48549 0.22735 -1.0113 0.51219 -1.54591 0.82827 -4.34241 2.11763 -9.46265 6.05638 -10.61443 8.14427 a 6.6889019 6.3224854 0 0 0 -2.98769 -0.70977 c -0.28481 -2.16033 0.0625 -4.70505 2.11496 -8.58522 1.1437 -2.16208 2.45832 -3.65273 3.55673 -4.69146 z" style="opacity:1;fill:#00ff00;fill-opacity:1;fill-rule:evenodd;stroke:none;stroke-width:0.223;stroke-linecap:square;stroke-linejoin:bevel;stroke-miterlimit:4;stroke-dasharray:none;stroke-dashoffset:0;stroke-opacity:1" />
    <path id="__YNDW_SHFJ__path10805" d="m 1021.38101353516 1003.13358845215 c -0.0393 0.0131 -0.0783 0.0248 -0.11757 0.038 l 0 -0.038 0.11757 0 z m 6.58069 0.48586 c 1.38399 0.41734 3.16282 0.95495 5.09391 1.97401 1.52832 0.80651 3.01091 1.93165 4.38243 3.0399 -0.48549 0.22735 -1.0113 0.51219 -1.54591 0.82827 -4.34241 2.11763 -9.46265 6.05638 -10.61443 8.14426 a 6.6889019 6.3224854 0 0 0 -2.98769 -0.70978 c -0.28481 -2.16031 0.0625 -4.70504 2.11496 -8.5852 1.1437 -2.16208 2.45832 -3.65273 3.55673 -4.69146 z" style="opacity:1;fill:url(#__YNDW_SHFJ__linearGradient10979);fill-opacity:1;fill-rule:evenodd;stroke:none;stroke-width:0.223;stroke-linecap:square;stroke-linejoin:bevel;stroke-miterlimit:4;stroke-dasharray:none;stroke-dashoffset:0;stroke-opacity:1" />
    <g transform="matrix(-0.22284803,0.41349604,0.44122979,0.20884079,0,0)" id="__YNDW_SHFJ__g10807">
      <path style="opacity:1;fill:#00ff00;fill-opacity:1;fill-rule:evenodd;stroke:none;stroke-width:0.223;stroke-linecap:square;stroke-linejoin:bevel;stroke-miterlimit:4;stroke-dasharray:none;stroke-dashoffset:0;stroke-opacity:1" d="m 1037.25102072702 2799.09872906238 c 0.0795 0.0283 0.15834 0.0536 0.23785 0.0821 l 0 -0.0821 -0.23785 0 z m -13.31281 1.04882 c -2.79982 0.90091 -6.39841 2.06145 -10.30503 4.26129 -3.09182 1.74101 -6.0911 4.16986 -8.8657 6.56224 0.98215 0.49078 2.04586 1.10566 3.12739 1.78798 8.78473 4.57129 19.14304 13.07389 21.47311 17.58099 a 13.531724 13.648333 0 0 1 6.04412 -1.5322 c 0.57619 -4.6635 -0.12637 -10.1567 -4.27859 -18.53285 -2.31371 -4.66728 -4.9732 -7.88514 -7.1953 -10.12745 z" id="__YNDW_SHFJ__path10809" />
      <path style="opacity:1;fill:url(#__YNDW_SHFJ__linearGradient10981);fill-opacity:1;fill-rule:evenodd;stroke:none;stroke-width:0.223;stroke-linecap:square;stroke-linejoin:bevel;stroke-miterlimit:4;stroke-dasharray:none;stroke-dashoffset:0;stroke-opacity:1" d="m 1037.19915072702 2799.04175906238 c 0.0795 0.0283 0.15834 0.0536 0.23785 0.0821 l 0 -0.0821 -0.23785 0 z m -13.31281 1.04882 c -2.79982 0.90091 -6.39841 2.06145 -10.30503 4.26129 -3.09182 1.74101 -6.0911 4.16986 -8.8657 6.56224 0.98215 0.49078 2.04586 1.10566 3.12739 1.78798 8.78473 4.57136 19.14304 13.07386 21.47311 17.58096 a 13.531724 13.648333 0 0 1 6.04412 -1.5322 c 0.57619 -4.6634 -0.12637 -10.1567 -4.27859 -18.53282 -2.31371 -4.66728 -4.9732 -7.88514 -7.1953 -10.12745 z" id="__YNDW_SHFJ__path10811" />
    </g>
    <path id="__YNDW_SHFJ__path10813" d="m 1003.52361353516 1031.97728845215 c 0.0316 0.0256 0.0617 0.0515 0.0933 0.077 l -0.0353 0.0188 -0.058 -0.0958 z m -2.7977 -5.60308 c -0.29592 -1.33397 -0.67515 -3.0491 -0.68277 -5.12599 -0.006 -1.64372 0.30621 -3.40745 0.6576 -5.07232 0.45065 0.28344 0.97454 0.57136 1.53177 0.85103 4.10876 2.49367 10.29151 4.72227 12.79762 4.63028 a 6.2803606 6.733767 86.968946 0 0 0.81621 2.78534 c -1.86416 1.29858 -4.39703 2.27173 -9.01102 2.51442 -2.57098 0.13521 -4.60325 -0.20033 -6.10941 -0.58276 z" style="opacity:1;fill:#00ff00;fill-opacity:1;fill-rule:evenodd;stroke:none;stroke-width:0.223;stroke-linecap:square;stroke-linejoin:bevel;stroke-miterlimit:4;stroke-dasharray:none;stroke-dashoffset:0;stroke-opacity:1" />
    <path id="__YNDW_SHFJ__path10815" d="m 1003.48647353516 1031.96941845215 c 0.0316 0.0256 0.0617 0.0515 0.0933 0.077 l -0.0353 0.0188 -0.058 -0.0958 z m -2.79771 -5.60308 c -0.29592 -1.33397 -0.67515 -3.0491 -0.68276 -5.12599 -0.006 -1.64372 0.30621 -3.40745 0.6576 -5.07232 0.45064 0.28344 0.97453 0.57136 1.53176 0.85103 4.10879 2.49366 10.2915 4.72228 12.79761 4.63029 a 6.2803606 6.733767 86.968946 0 0 0.81621 2.78534 c -1.86412 1.29855 -4.39703 2.27173 -9.01101 2.51441 -2.57097 0.13521 -4.60324 -0.20033 -6.10941 -0.58276 z" style="opacity:1;fill:url(#__YNDW_SHFJ__linearGradient10983);fill-opacity:1;fill-rule:evenodd;stroke:none;stroke-width:0.223;stroke-linecap:square;stroke-linejoin:bevel;stroke-miterlimit:4;stroke-dasharray:none;stroke-dashoffset:0;stroke-opacity:1" />
    <path id="__YNDW_SHFJ__path10817" d="m 1019.80629353516 1041.69718445215 c 0.0405 -0.0093 0.0805 -0.01727 0.12108 -0.02667 l -0.004 0.03784 -0.11697 -0.01116 z m -6.49431 -1.108134 c -1.33175 -0.546589 -3.04331 -1.250318 -4.8543 -2.447472 -1.43327 -0.94746 -2.7866 -2.20758 -4.03125 -3.44034 0.50757 -0.18009 1.06146 -0.41354 1.62749 -0.67724 4.54898 -1.69444 10.06868 -5.12682 11.44024 -7.09461 a 6.3218449 6.6895796 89.123948 0 0 2.89559 0.98978 c 0.0498 2.17626 -0.57078 4.67488 -3.03217 8.34023 -1.37155 2.04238 -2.84055 3.400548 -4.0456 4.329652 z" style="opacity:1;fill:#00ff00;fill-opacity:1;fill-rule:evenodd;stroke:none;stroke-width:0.223;stroke-linecap:square;stroke-linejoin:bevel;stroke-miterlimit:4;stroke-dasharray:none;stroke-dashoffset:0;stroke-opacity:1" />
    <path id="__YNDW_SHFJ__path10819" d="m 1019.77793353516 1041.72100545215 c 0.0405 -0.0093 0.0806 -0.01727 0.12108 -0.02667 l -0.004 0.03784 -0.11697 -0.01116 z m -6.49431 -1.108134 c -1.33175 -0.546589 -3.04331 -1.250318 -4.8543 -2.447473 -1.43327 -0.94746 -2.7866 -2.20758 -4.03125 -3.44034 0.50756 -0.18009 1.06146 -0.41354 1.62749 -0.67724 4.54899 -1.69448 10.06868 -5.12681 11.44024 -7.0946 a 6.3218449 6.6895796 89.123948 0 0 2.89558 0.98979 c 0.0498 2.17621 -0.57077 4.67487 -3.03217 8.34022 -1.37154 2.04237 -2.84054 3.400538 -4.04559 4.329643 z" style="opacity:1;fill:url(#__YNDW_SHFJ__linearGradient10985);fill-opacity:1;fill-rule:evenodd;stroke:none;stroke-width:0.223;stroke-linecap:square;stroke-linejoin:bevel;stroke-miterlimit:4;stroke-dasharray:none;stroke-dashoffset:0;stroke-opacity:1" />
    <path id="__YNDW_SHFJ__path10821" d="m 1038.81836353516 1033.12559845215 c 0.0127 -0.0373 0.0263 -0.0734 0.0389 -0.11072 l 0.0323 0.023 -0.0712 0.0877 z m -4.39595 4.61489 c -1.19221 0.77979 -2.72557 1.781324 -4.76003 2.60502 -1.61013 0.651902 -3.46322 1.076811 -5.23474 1.429097 0.10076 -0.499773 0.17709 -1.064418 0.23222 -1.654544 0.82976 -4.521073 0.58349 -10.724723 -0.49276 -12.847703 a 6.7270733 6.2866097 3.504052 0 0 2.41132 -1.79909 c 2.00736 1.09518 3.95857 2.89453 6.01199 6.77429 1.14417 2.16186 1.61457 4.04481 1.832 5.49293 z" style="opacity:1;fill:#00ff00;fill-opacity:1;fill-rule:evenodd;stroke:none;stroke-width:0.223;stroke-linecap:square;stroke-linejoin:bevel;stroke-miterlimit:4;stroke-dasharray:none;stroke-dashoffset:0;stroke-opacity:1" />
    <path id="__YNDW_SHFJ__path10823" d="m 1038.82526353516 1033.16069845215 c 0.0127 -0.0373 0.0263 -0.0734 0.0389 -0.11072 l 0.0323 0.023 -0.0712 0.0877 z m -4.39596 4.61489 c -1.19221 0.77979 -2.72557 1.781325 -4.76003 2.605021 -1.61013 0.651902 -3.46322 1.076811 -5.23473 1.429097 0.10076 -0.499773 0.17709 -1.064418 0.23221 -1.654544 0.82974 -4.521094 0.58351 -10.724714 -0.49274 -12.847694 a 6.7270733 6.2866097 3.504052 0 0 2.41132 -1.79909 c 2.00732 1.09515 3.95857 2.89453 6.01197 6.77428 1.14418 2.16186 1.61458 4.04481 1.832 5.49293 z" style="opacity:1;fill:url(#__YNDW_SHFJ__linearGradient10987);fill-opacity:1;fill-rule:evenodd;stroke:none;stroke-width:0.223;stroke-linecap:square;stroke-linejoin:bevel;stroke-miterlimit:4;stroke-dasharray:none;stroke-dashoffset:0;stroke-opacity:1" />
    <path id="__YNDW_SHFJ__path10825" d="m 1039.34097353516 1012.56169845215 c -0.0309 -0.0263 -0.0603 -0.0529 -0.0913 -0.0791 l 0.0358 -0.018 0.0555 0.0971 z m 2.65136 5.66524 c 0.26119 1.34032 0.59576 3.06359 0.54943 5.14004 -0.0367 1.64337 -0.39461 3.39945 -0.78913 5.05582 -0.44315 -0.29363 -0.95941 -0.59342 -1.50921 -0.88572 -4.04279 -2.58665 -10.16583 -4.9556 -12.67358 -4.9208 a 6.27933 6.7348723 87.074774 0 0 -0.74363 -2.80313 c 1.89733 -1.25568 4.45473 -2.17077 9.07365 -2.30815 2.57372 -0.0765 4.59668 0.30527 6.09247 0.72194 z" style="opacity:1;fill:#00ff00;fill-opacity:1;fill-rule:evenodd;stroke:none;stroke-width:0.223;stroke-linecap:square;stroke-linejoin:bevel;stroke-miterlimit:4;stroke-dasharray:none;stroke-dashoffset:0;stroke-opacity:1" />
    <path id="__YNDW_SHFJ__path10827" d="m 1039.37790353516 1012.57041845215 c -0.0309 -0.0263 -0.0603 -0.0529 -0.0913 -0.0792 l 0.0358 -0.018 0.0555 0.0971 z m 2.65136 5.66523 c 0.26119 1.34032 0.59576 3.06359 0.54944 5.14004 -0.0367 1.64337 -0.39462 3.39946 -0.78914 5.05582 -0.44315 -0.29363 -0.95941 -0.59341 -1.50921 -0.88571 -4.04281 -2.58664 -10.16581 -4.95562 -12.67357 -4.92082 a 6.27933 6.7348723 87.074774 0 0 -0.74363 -2.80312 c 1.89729 -1.25566 4.45473 -2.17077 9.07364 -2.30815 2.57373 -0.0765 4.59668 0.30527 6.09247 0.72194 z" style="opacity:1;fill:url(#__YNDW_SHFJ__linearGradient10989);fill-opacity:1;fill-rule:evenodd;stroke:none;stroke-width:0.223;stroke-linecap:square;stroke-linejoin:bevel;stroke-miterlimit:4;stroke-dasharray:none;stroke-dashoffset:0;stroke-opacity:1" />
    <g transform="matrix(-0.34398313,0,0,0.31933374,0,0)" id="__YNDW_SHFJ__g10829">
      <path style="opacity:1;fill:#808080;fill-opacity:1;fill-rule:evenodd;stroke:#f2f2f2;stroke-width:1.01415038;stroke-linecap:square;stroke-linejoin:bevel;stroke-miterlimit:4;stroke-dasharray:none;stroke-dashoffset:0;stroke-opacity:0.00732601" id="__YNDW_SHFJ__path10831" d="m -2958.8979227973 3216.64194573046 a 18.495163 18.49437 0 0 1 -25.41461 -5.50834 18.495163 18.49437 0 0 1 5.21492 -25.47539 18.495163 18.49437 0 0 1 25.53498 4.92036 18.495163 18.49437 0 0 1 -4.62557 25.58896" />
      <path style="opacity:1;fill:#333333;fill-opacity:1;fill-rule:evenodd;stroke:#f2f2f2;stroke-width:1.01415038;stroke-linecap:square;stroke-linejoin:bevel;stroke-miterlimit:4;stroke-dasharray:none;stroke-dashoffset:0;stroke-opacity:0.00732601" d="m -2985.10915279729 3191.99266573046 a 18.495163 18.49437 0 0 0 -0.27148 20.57813 18.495163 18.49437 0 0 0 25.41601 5.50781 l 0.70899 -0.47461 a 18.495163 18.49437 0 0 0 5.65625 -6.3789 18.495163 18.49437 0 0 1 -4.60742 4.6582 l -0.71094 0.47461 a 18.495163 18.49437 0 0 1 -25.41406 -5.50977 18.495163 18.49437 0 0 1 -0.77735 -18.85547 z" id="__YNDW_SHFJ__path10833" />
      <path style="opacity:1;fill:#f2f2f2;fill-opacity:1;fill-rule:evenodd;stroke:#f2f2f2;stroke-width:1.01415038;stroke-linecap:square;stroke-linejoin:bevel;stroke-miterlimit:4;stroke-dasharray:none;stroke-dashoffset:0;stroke-opacity:0.00732601" d="m -2967.38956279729 3181.67948573046 a 18.495163 18.49437 0 0 0 -10.47656 3.11718 18.495163 18.49437 0 0 0 -3.65234 3.21485 18.495163 18.49437 0 0 1 2.2246 -1.75391 18.495163 18.49437 0 0 1 25.53516 4.91992 18.495163 18.49437 0 0 1 -1.31836 22.58985 18.495163 18.49437 0 0 0 2.7461 -24.04883 18.495163 18.49437 0 0 0 -15.0586 -8.03906 z" id="__YNDW_SHFJ__path10835" />
    </g>
  </g>
  <g id="__YNDW_SHFJ__g10873" transform="matrix(1,0,0,1,0,0)" xmlns="http://www.w3.org/2000/svg">
    <desc id="__YNDW_SHFJ__desc10875">故障</desc>
    <path id="__YNDW_SHFJ__path10877" d="m 1021.35538353516 1003.15997845215 c -0.0393 0.0131 -0.0783 0.0248 -0.11757 0.038 l 0 -0.038 0.11757 0 z m 6.58069 0.48586 c 1.38399 0.41734 3.16282 0.95495 5.09391 1.97401 1.52832 0.80651 3.01091 1.93165 4.38243 3.0399 -0.48549 0.22735 -1.0113 0.51219 -1.54591 0.82827 -4.34241 2.11763 -9.46265 6.05638 -10.61443 8.14427 a 6.6889019 6.3224854 0 0 0 -2.98769 -0.70977 c -0.28481 -2.16033 0.0625 -4.70505 2.11496 -8.58522 1.1437 -2.16208 2.45832 -3.65273 3.55673 -4.69146 z" style="opacity:1;fill:#ffff00;fill-opacity:1;fill-rule:evenodd;stroke:none;stroke-width:0.223;stroke-linecap:square;stroke-linejoin:bevel;stroke-miterlimit:4;stroke-dasharray:none;stroke-dashoffset:0;stroke-opacity:1" />
    <path id="__YNDW_SHFJ__path10879" d="m 1021.38102353516 1003.13358845215 c -0.0393 0.0131 -0.0783 0.0248 -0.11757 0.038 l 0 -0.038 0.11757 0 z m 6.58069 0.48586 c 1.38399 0.41734 3.16282 0.95495 5.09391 1.97401 1.52832 0.80651 3.01091 1.93165 4.38243 3.0399 -0.48549 0.22735 -1.0113 0.51219 -1.54591 0.82827 -4.34241 2.11763 -9.46265 6.05638 -10.61443 8.14426 a 6.6889019 6.3224854 0 0 0 -2.98769 -0.70978 c -0.28481 -2.16031 0.0625 -4.70504 2.11496 -8.5852 1.1437 -2.16208 2.45832 -3.65273 3.55673 -4.69146 z" style="opacity:1;fill:url(#__YNDW_SHFJ__linearGradient11003);fill-opacity:1;fill-rule:evenodd;stroke:none;stroke-width:0.223;stroke-linecap:square;stroke-linejoin:bevel;stroke-miterlimit:4;stroke-dasharray:none;stroke-dashoffset:0;stroke-opacity:1" />
    <path id="__YNDW_SHFJ__path10881" d="m 1003.89640353516 1013.46517845215 c -0.005 0.0388 -0.0116 0.0767 -0.0168 0.1155 l -0.0362 -0.0172 0.053 -0.0983 z m 3.42951 -5.28576 c 1.02144 -0.96956 2.33544 -2.2152 4.17666 -3.37115 1.45719 -0.91487 3.19726 -1.64781 4.87116 -2.29547 -0.002 0.50861 0.0319 1.07686 0.092 1.66656 0.0593 4.58713 1.5026 10.64594 2.97202 12.55068 a 6.7359339 6.2783404 2.8143894 0 0 -2.02298 2.17923 c -2.18608 -0.73568 -4.45327 -2.17339 -7.22377 -5.63959 -1.54373 -1.93143 -2.37089 -3.70314 -2.86507 -5.09026 z" style="opacity:1;fill:#ffff00;fill-opacity:1;fill-rule:evenodd;stroke:none;stroke-width:0.223;stroke-linecap:square;stroke-linejoin:bevel;stroke-miterlimit:4;stroke-dasharray:none;stroke-dashoffset:0;stroke-opacity:1" />
    <path id="__YNDW_SHFJ__path10883" d="m 1003.88283353516 1013.43183845215 c -0.005 0.0388 -0.0116 0.0767 -0.0168 0.11549 l -0.0362 -0.0171 0.053 -0.0984 z m 3.4295 -5.28576 c 1.02144 -0.96957 2.33545 -2.2152 4.17666 -3.37116 1.4572 -0.91486 3.19726 -1.64781 4.87116 -2.29547 -0.002 0.50861 0.0319 1.07686 0.092 1.66657 0.0594 4.58714 1.50259 10.64592 2.972 12.55067 a 6.7359339 6.2783404 2.8143894 0 0 -2.02297 2.17923 c -2.18603 -0.73566 -4.45328 -2.17339 -7.22376 -5.63959 -1.54373 -1.93143 -2.37089 -3.70314 -2.86507 -5.09025 z" style="opacity:1;fill:url(#__YNDW_SHFJ__linearGradient11005);fill-opacity:1;fill-rule:evenodd;stroke:none;stroke-width:0.223;stroke-linecap:square;stroke-linejoin:bevel;stroke-miterlimit:4;stroke-dasharray:none;stroke-dashoffset:0;stroke-opacity:1" />
    <path id="__YNDW_SHFJ__path10885" d="m 1003.52362353516 1031.97728845215 c 0.0316 0.0256 0.0617 0.0515 0.0933 0.077 l -0.0353 0.0188 -0.058 -0.0958 z m -2.7977 -5.60308 c -0.29592 -1.33397 -0.67515 -3.0491 -0.68277 -5.12599 -0.006 -1.64372 0.30621 -3.40745 0.6576 -5.07232 0.45065 0.28344 0.97454 0.57136 1.53177 0.85103 4.10876 2.49367 10.29151 4.72227 12.79762 4.63028 a 6.2803606 6.733767 86.968946 0 0 0.81621 2.78534 c -1.86416 1.29858 -4.39703 2.27173 -9.01102 2.51442 -2.57098 0.13521 -4.60325 -0.20033 -6.10941 -0.58276 z" style="opacity:1;fill:#ffff00;fill-opacity:1;fill-rule:evenodd;stroke:none;stroke-width:0.223;stroke-linecap:square;stroke-linejoin:bevel;stroke-miterlimit:4;stroke-dasharray:none;stroke-dashoffset:0;stroke-opacity:1" />
    <path id="__YNDW_SHFJ__path10887" d="m 1003.48648353516 1031.96941845215 c 0.0316 0.0256 0.0617 0.0515 0.0933 0.0771 l -0.0353 0.0188 -0.058 -0.0958 z m -2.79771 -5.60308 c -0.29592 -1.33397 -0.67515 -3.0491 -0.68276 -5.12599 -0.006 -1.64372 0.30621 -3.40745 0.6576 -5.07232 0.45064 0.28344 0.97453 0.57136 1.53176 0.85103 4.10879 2.49366 10.2915 4.72228 12.79761 4.63029 a 6.2803606 6.733767 86.968946 0 0 0.81621 2.78534 c -1.86412 1.29855 -4.39703 2.27173 -9.01101 2.51441 -2.57097 0.13521 -4.60324 -0.20033 -6.10941 -0.58276 z" style="opacity:1;fill:url(#__YNDW_SHFJ__linearGradient11007);fill-opacity:1;fill-rule:evenodd;stroke:none;stroke-width:0.223;stroke-linecap:square;stroke-linejoin:bevel;stroke-miterlimit:4;stroke-dasharray:none;stroke-dashoffset:0;stroke-opacity:1" />
    <path id="__YNDW_SHFJ__path10889" d="m 1019.80630353516 1041.69718845215 c 0.0405 -0.009 0.0805 -0.0173 0.12108 -0.0267 l -0.004 0.0378 -0.11697 -0.0112 z m -6.49431 -1.10814 c -1.33175 -0.54659 -3.04331 -1.25032 -4.8543 -2.44747 -1.43327 -0.94746 -2.7866 -2.20758 -4.03125 -3.44034 0.50757 -0.18009 1.06146 -0.41354 1.62749 -0.67724 4.54898 -1.69444 10.06868 -5.12682 11.44024 -7.09461 a 6.3218449 6.6895796 89.123948 0 0 2.89559 0.98978 c 0.0498 2.17626 -0.57078 4.67488 -3.03217 8.34023 -1.37155 2.04238 -2.84055 3.40055 -4.0456 4.32965 z" style="opacity:1;fill:#ffff00;fill-opacity:1;fill-rule:evenodd;stroke:none;stroke-width:0.223;stroke-linecap:square;stroke-linejoin:bevel;stroke-miterlimit:4;stroke-dasharray:none;stroke-dashoffset:0;stroke-opacity:1" />
    <path id="__YNDW_SHFJ__path10891" d="m 1019.77794353516 1041.72100845215 c 0.0405 -0.009 0.0806 -0.0173 0.12108 -0.0267 l -0.004 0.0378 -0.11697 -0.0112 z m -6.49431 -1.10814 c -1.33175 -0.54659 -3.04331 -1.25031 -4.8543 -2.44747 -1.43327 -0.94746 -2.7866 -2.20758 -4.03125 -3.44034 0.50756 -0.18009 1.06146 -0.41354 1.62749 -0.67724 4.54899 -1.69448 10.06868 -5.12681 11.44024 -7.0946 a 6.3218449 6.6895796 89.123948 0 0 2.89558 0.98979 c 0.0498 2.17621 -0.57077 4.67487 -3.03217 8.34022 -1.37154 2.04237 -2.84054 3.40054 -4.04559 4.32964 z" style="opacity:1;fill:url(#__YNDW_SHFJ__linearGradient11009);fill-opacity:1;fill-rule:evenodd;stroke:none;stroke-width:0.223;stroke-linecap:square;stroke-linejoin:bevel;stroke-miterlimit:4;stroke-dasharray:none;stroke-dashoffset:0;stroke-opacity:1" />
    <path id="__YNDW_SHFJ__path10893" d="m 1038.81837353516 1033.12559845215 c 0.0126 -0.0373 0.0263 -0.0734 0.0389 -0.11072 l 0.0323 0.023 -0.0712 0.0877 z m -4.39595 4.61489 c -1.19221 0.77979 -2.72557 1.78132 -4.76003 2.60502 -1.61013 0.6519 -3.46322 1.07681 -5.23474 1.4291 0.10076 -0.49978 0.17709 -1.06442 0.23222 -1.65455 0.82976 -4.52107 0.58349 -10.72472 -0.49276 -12.8477 a 6.7270733 6.2866097 3.504052 0 0 2.41132 -1.79909 c 2.00736 1.09518 3.95857 2.89453 6.01199 6.77429 1.14417 2.16186 1.61457 4.04481 1.832 5.49293 z" style="opacity:1;fill:#ffff00;fill-opacity:1;fill-rule:evenodd;stroke:none;stroke-width:0.223;stroke-linecap:square;stroke-linejoin:bevel;stroke-miterlimit:4;stroke-dasharray:none;stroke-dashoffset:0;stroke-opacity:1" />
    <path id="__YNDW_SHFJ__path10895" d="m 1038.82527353516 1033.16069845215 c 0.0127 -0.0373 0.0263 -0.0734 0.0389 -0.11072 l 0.0323 0.023 -0.0712 0.0877 z m -4.39596 4.61489 c -1.19221 0.77979 -2.72557 1.78133 -4.76003 2.60502 -1.61013 0.6519 -3.46322 1.07681 -5.23473 1.4291 0.10076 -0.49978 0.17709 -1.06442 0.23221 -1.65455 0.82974 -4.52109 0.58351 -10.72471 -0.49274 -12.84769 a 6.7270733 6.2866097 3.504052 0 0 2.41132 -1.79909 c 2.00732 1.09515 3.95857 2.89453 6.01197 6.77428 1.14418 2.16186 1.61458 4.04481 1.832 5.49293 z" style="opacity:1;fill:url(#__YNDW_SHFJ__linearGradient11011);fill-opacity:1;fill-rule:evenodd;stroke:none;stroke-width:0.223;stroke-linecap:square;stroke-linejoin:bevel;stroke-miterlimit:4;stroke-dasharray:none;stroke-dashoffset:0;stroke-opacity:1" />
    <path id="__YNDW_SHFJ__path10897" d="m 1039.34098353516 1012.56169845215 c -0.0309 -0.0263 -0.0603 -0.0529 -0.0913 -0.0791 l 0.0358 -0.018 0.0555 0.0971 z m 2.65136 5.66524 c 0.26119 1.34032 0.59576 3.06359 0.54943 5.14004 -0.0367 1.64337 -0.39461 3.39945 -0.78913 5.05582 -0.44315 -0.29363 -0.95941 -0.59342 -1.50921 -0.88572 -4.04279 -2.58665 -10.16583 -4.9556 -12.67358 -4.9208 a 6.27933 6.7348723 87.074774 0 0 -0.74363 -2.80313 c 1.89733 -1.25568 4.45473 -2.17077 9.07365 -2.30815 2.57372 -0.0765 4.59668 0.30527 6.09247 0.72194 z" style="opacity:1;fill:#ffff00;fill-opacity:1;fill-rule:evenodd;stroke:none;stroke-width:0.223;stroke-linecap:square;stroke-linejoin:bevel;stroke-miterlimit:4;stroke-dasharray:none;stroke-dashoffset:0;stroke-opacity:1" />
    <path id="__YNDW_SHFJ__path10899" d="m 1039.37791353516 1012.57041845215 c -0.0309 -0.0263 -0.0603 -0.0529 -0.0913 -0.0792 l 0.0358 -0.018 0.0555 0.0971 z m 2.65136 5.66523 c 0.26119 1.34032 0.59576 3.06359 0.54944 5.14004 -0.0367 1.64337 -0.39462 3.39946 -0.78914 5.05582 -0.44315 -0.29363 -0.95941 -0.59341 -1.50921 -0.88571 -4.04281 -2.58664 -10.16581 -4.95562 -12.67357 -4.92082 a 6.27933 6.7348723 87.074774 0 0 -0.74363 -2.80312 c 1.89729 -1.25566 4.45473 -2.17077 9.07364 -2.30815 2.57373 -0.0765 4.59668 0.30527 6.09247 0.72194 z" style="opacity:1;fill:url(#__YNDW_SHFJ__linearGradient11013);fill-opacity:1;fill-rule:evenodd;stroke:none;stroke-width:0.223;stroke-linecap:square;stroke-linejoin:bevel;stroke-miterlimit:4;stroke-dasharray:none;stroke-dashoffset:0;stroke-opacity:1" />
    <g transform="matrix(-0.34398313,0,0,0.31933374,0,0)" id="__YNDW_SHFJ__g10901">
      <path style="opacity:1;fill:#808080;fill-opacity:1;fill-rule:evenodd;stroke:#f2f2f2;stroke-width:1.01415038;stroke-linecap:square;stroke-linejoin:bevel;stroke-miterlimit:4;stroke-dasharray:none;stroke-dashoffset:0;stroke-opacity:0.00732601" id="__YNDW_SHFJ__path10903" d="m -2958.89795186849 3216.64194573047 a 18.495163 18.49437 0 0 1 -25.41461 -5.50834 18.495163 18.49437 0 0 1 5.21492 -25.47539 18.495163 18.49437 0 0 1 25.53498 4.92036 18.495163 18.49437 0 0 1 -4.62557 25.58896" />
      <path style="opacity:1;fill:#333333;fill-opacity:1;fill-rule:evenodd;stroke:#f2f2f2;stroke-width:1.01415038;stroke-linecap:square;stroke-linejoin:bevel;stroke-miterlimit:4;stroke-dasharray:none;stroke-dashoffset:0;stroke-opacity:0.00732601" d="m -2985.10918186849 3191.99266573047 a 18.495163 18.49437 0 0 0 -0.27148 20.57813 18.495163 18.49437 0 0 0 25.41601 5.50781 l 0.70899 -0.47461 a 18.495163 18.49437 0 0 0 5.65625 -6.3789 18.495163 18.49437 0 0 1 -4.60742 4.6582 l -0.71094 0.47461 a 18.495163 18.49437 0 0 1 -25.41406 -5.50977 18.495163 18.49437 0 0 1 -0.77735 -18.85547 z" id="__YNDW_SHFJ__path10905" />
      <path style="opacity:1;fill:#f2f2f2;fill-opacity:1;fill-rule:evenodd;stroke:#f2f2f2;stroke-width:1.01415038;stroke-linecap:square;stroke-linejoin:bevel;stroke-miterlimit:4;stroke-dasharray:none;stroke-dashoffset:0;stroke-opacity:0.00732601" d="m -2967.38959186849 3181.67948573046 a 18.495163 18.49437 0 0 0 -10.47656 3.11718 18.495163 18.49437 0 0 0 -3.65234 3.21485 18.495163 18.49437 0 0 1 2.2246 -1.75391 18.495163 18.49437 0 0 1 25.53516 4.91992 18.495163 18.49437 0 0 1 -1.31836 22.58985 18.495163 18.49437 0 0 0 2.7461 -24.04883 18.495163 18.49437 0 0 0 -15.0586 -8.03906 z" id="__YNDW_SHFJ__path10907" />
    </g>
  </g>
  <g transform="matrix(1,0,0,1,0,0)" id="__YNDW_SHFJ__g10909" xmlns="http://www.w3.org/2000/svg">
    <desc id="__YNDW_SHFJ__desc10911">停止</desc>
    <path id="__YNDW_SHFJ__path10913" d="m 1021.35538353516 1003.15997845215 c -0.0393 0.0131 -0.0783 0.0248 -0.11757 0.038 l 0 -0.038 0.11757 0 z m 6.58069 0.48586 c 1.38399 0.41734 3.16282 0.95495 5.09391 1.97401 1.52832 0.80651 3.01091 1.93165 4.38243 3.0399 -0.48549 0.22735 -1.0113 0.51219 -1.54591 0.82827 -4.34241 2.11763 -9.46266 6.05638 -10.61443 8.14427 a 6.6889019 6.3224854 0 0 0 -2.98769 -0.70977 c -0.28481 -2.16033 0.0625 -4.70505 2.11496 -8.58522 1.14369 -2.16208 2.45831 -3.65273 3.55673 -4.69146 z" style="opacity:1;fill:#ffffff;fill-opacity:1;fill-rule:evenodd;stroke:none;stroke-width:0.223;stroke-linecap:square;stroke-linejoin:bevel;stroke-miterlimit:4;stroke-dasharray:none;stroke-dashoffset:0;stroke-opacity:1" />
    <path id="__YNDW_SHFJ__path10915" d="m 1021.38101353516 1003.13358845215 c -0.0393 0.0131 -0.0783 0.0248 -0.11757 0.038 l 0 -0.038 0.11757 0 z m 6.58069 0.48586 c 1.384 0.41734 3.16282 0.95495 5.09392 1.97401 1.52832 0.80651 3.0109 1.93165 4.38243 3.0399 -0.48549 0.22735 -1.0113 0.51219 -1.54592 0.82827 -4.3424 2.11763 -9.46265 6.05638 -10.61442 8.14426 a 6.6889019 6.3224854 0 0 0 -2.9877 -0.70978 c -0.28481 -2.16031 0.0625 -4.70504 2.11496 -8.5852 1.1437 -2.16208 2.45832 -3.65273 3.55673 -4.69146 z" style="opacity:1;fill:url(#__YNDW_SHFJ__linearGradient11015);fill-opacity:1;fill-rule:evenodd;stroke:none;stroke-width:0.223;stroke-linecap:square;stroke-linejoin:bevel;stroke-miterlimit:4;stroke-dasharray:none;stroke-dashoffset:0;stroke-opacity:1" />
    <path id="__YNDW_SHFJ__path10917" d="m 1003.89640353516 1013.46517845215 c -0.005 0.0388 -0.0116 0.0767 -0.0168 0.1155 l -0.0362 -0.0172 0.053 -0.0983 z m 3.42951 -5.28576 c 1.02144 -0.96956 2.33544 -2.2152 4.17666 -3.37115 1.45719 -0.91487 3.19726 -1.64781 4.87116 -2.29547 -0.002 0.50861 0.0319 1.07686 0.092 1.66656 0.0593 4.58713 1.5026 10.64594 2.97202 12.55068 a 6.7359339 6.2783404 2.8143894 0 0 -2.02298 2.17923 c -2.18608 -0.73568 -4.45327 -2.17339 -7.22377 -5.63959 -1.54373 -1.93143 -2.37089 -3.70314 -2.86507 -5.09026 z" style="opacity:1;fill:#ffffff;fill-opacity:1;fill-rule:evenodd;stroke:none;stroke-width:0.223;stroke-linecap:square;stroke-linejoin:bevel;stroke-miterlimit:4;stroke-dasharray:none;stroke-dashoffset:0;stroke-opacity:1" />
    <path id="__YNDW_SHFJ__path10919" d="m 1003.88282353516 1013.43183845215 c -0.005 0.0388 -0.0116 0.0767 -0.0168 0.11549 l -0.0362 -0.0171 0.053 -0.0984 z m 3.4295 -5.28576 c 1.02144 -0.96957 2.33545 -2.2152 4.17666 -3.37116 1.4572 -0.91486 3.19726 -1.64781 4.87116 -2.29547 -0.002 0.50861 0.0319 1.07686 0.092 1.66657 0.0594 4.58714 1.50259 10.64592 2.972 12.55067 a 6.7359339 6.2783404 2.8143894 0 0 -2.02297 2.17923 c -2.18603 -0.73566 -4.45328 -2.17339 -7.22376 -5.63959 -1.54373 -1.93143 -2.37089 -3.70314 -2.86507 -5.09025 z" style="opacity:1;fill:url(#__YNDW_SHFJ__linearGradient11017);fill-opacity:1;fill-rule:evenodd;stroke:none;stroke-width:0.223;stroke-linecap:square;stroke-linejoin:bevel;stroke-miterlimit:4;stroke-dasharray:none;stroke-dashoffset:0;stroke-opacity:1" />
    <path id="__YNDW_SHFJ__path10921" d="m 1003.52361353516 1031.97728845215 c 0.0316 0.0256 0.0617 0.0515 0.0933 0.077 l -0.0353 0.0188 -0.058 -0.0958 z m -2.79769 -5.60308 c -0.29592 -1.33397 -0.67516 -3.0491 -0.68277 -5.12599 -0.006 -1.64372 0.3062 -3.40745 0.6576 -5.07232 0.45065 0.28344 0.97454 0.57136 1.53177 0.85103 4.10876 2.49367 10.29151 4.72227 12.79762 4.63028 a 6.2803606 6.733767 86.968946 0 0 0.81621 2.78534 c -1.86416 1.29858 -4.39703 2.27173 -9.01102 2.51442 -2.57098 0.13521 -4.60325 -0.20033 -6.10941 -0.58276 z" style="opacity:1;fill:#ffffff;fill-opacity:1;fill-rule:evenodd;stroke:none;stroke-width:0.223;stroke-linecap:square;stroke-linejoin:bevel;stroke-miterlimit:4;stroke-dasharray:none;stroke-dashoffset:0;stroke-opacity:1" />
    <path id="__YNDW_SHFJ__path10923" d="m 1003.48647353516 1031.96941845215 c 0.0316 0.0256 0.0617 0.0515 0.0933 0.0771 l -0.0353 0.0188 -0.058 -0.0958 z m -2.79771 -5.60308 c -0.29592 -1.33397 -0.67515 -3.0491 -0.68276 -5.12599 -0.006 -1.64372 0.30621 -3.40745 0.6576 -5.07232 0.45064 0.28344 0.97453 0.57136 1.53176 0.85103 4.10879 2.49366 10.2915 4.72228 12.79761 4.63029 a 6.2803606 6.733767 86.968946 0 0 0.81621 2.78534 c -1.86412 1.29855 -4.39703 2.27173 -9.01101 2.51441 -2.57097 0.13521 -4.60324 -0.20033 -6.10941 -0.58276 z" style="opacity:1;fill:url(#__YNDW_SHFJ__linearGradient11019);fill-opacity:1;fill-rule:evenodd;stroke:none;stroke-width:0.223;stroke-linecap:square;stroke-linejoin:bevel;stroke-miterlimit:4;stroke-dasharray:none;stroke-dashoffset:0;stroke-opacity:1" />
    <path id="__YNDW_SHFJ__path10925" d="m 1019.80630353516 1041.69718845215 c 0.0405 -0.009 0.0805 -0.0173 0.12108 -0.0267 l -0.004 0.0378 -0.11698 -0.0112 z m -6.49432 -1.10814 c -1.33175 -0.54659 -3.04331 -1.25032 -4.85429 -2.44747 -1.43327 -0.94746 -2.78661 -2.20758 -4.03125 -3.44034 0.50756 -0.18009 1.06146 -0.41354 1.62748 -0.67724 4.54899 -1.69444 10.06868 -5.12682 11.44024 -7.09461 a 6.3218449 6.6895796 89.123948 0 0 2.89559 0.98978 c 0.0498 2.17626 -0.57078 4.67488 -3.03216 8.34023 -1.37155 2.04238 -2.84055 3.40055 -4.04561 4.32965 z" style="opacity:1;fill:#ffffff;fill-opacity:1;fill-rule:evenodd;stroke:none;stroke-width:0.223;stroke-linecap:square;stroke-linejoin:bevel;stroke-miterlimit:4;stroke-dasharray:none;stroke-dashoffset:0;stroke-opacity:1" />
    <path id="__YNDW_SHFJ__path10927" d="m 1019.77793353516 1041.72100845215 c 0.0405 -0.009 0.0806 -0.0173 0.12109 -0.0267 l -0.004 0.0378 -0.11697 -0.0112 z m -6.49431 -1.10814 c -1.33175 -0.54659 -3.04331 -1.25031 -4.8543 -2.44747 -1.43327 -0.94746 -2.7866 -2.20758 -4.03125 -3.44034 0.50757 -0.18009 1.06146 -0.41354 1.62749 -0.67724 4.54899 -1.69448 10.06868 -5.12681 11.44024 -7.0946 a 6.3218449 6.6895796 89.123948 0 0 2.89558 0.98979 c 0.0498 2.17621 -0.57077 4.67487 -3.03216 8.34022 -1.37154 2.04237 -2.84055 3.40054 -4.04559 4.32964 z" style="opacity:1;fill:url(#__YNDW_SHFJ__linearGradient11021);fill-opacity:1;fill-rule:evenodd;stroke:none;stroke-width:0.223;stroke-linecap:square;stroke-linejoin:bevel;stroke-miterlimit:4;stroke-dasharray:none;stroke-dashoffset:0;stroke-opacity:1" />
    <path id="__YNDW_SHFJ__path10929" d="m 1038.81837353516 1033.12559845215 c 0.0126 -0.0373 0.0263 -0.0734 0.0389 -0.11072 l 0.0323 0.023 -0.0712 0.0877 z m -4.39595 4.61489 c -1.19222 0.77979 -2.72557 1.78132 -4.76003 2.60502 -1.61014 0.6519 -3.46322 1.07681 -5.23474 1.4291 0.10076 -0.49978 0.17709 -1.06442 0.23222 -1.65455 0.82975 -4.52107 0.58348 -10.72472 -0.49276 -12.8477 a 6.7270733 6.2866097 3.504052 0 0 2.41132 -1.79909 c 2.00736 1.09518 3.95857 2.89453 6.01199 6.77429 1.14417 2.16186 1.61457 4.04481 1.832 5.49293 z" style="opacity:1;fill:#ffffff;fill-opacity:1;fill-rule:evenodd;stroke:none;stroke-width:0.223;stroke-linecap:square;stroke-linejoin:bevel;stroke-miterlimit:4;stroke-dasharray:none;stroke-dashoffset:0;stroke-opacity:1" />
    <path id="__YNDW_SHFJ__path10931" d="m 1038.82526353516 1033.16069845215 c 0.0127 -0.0373 0.0263 -0.0734 0.0389 -0.11072 l 0.0323 0.023 -0.0712 0.0877 z m -4.39595 4.61489 c -1.19222 0.77979 -2.72557 1.78133 -4.76003 2.60502 -1.61014 0.6519 -3.46322 1.07681 -5.23474 1.4291 0.10077 -0.49978 0.1771 -1.06442 0.23222 -1.65455 0.82974 -4.52109 0.58351 -10.72471 -0.49275 -12.84769 a 6.7270733 6.2866097 3.504052 0 0 2.41133 -1.79909 c 2.00732 1.09515 3.95857 2.89453 6.01197 6.77428 1.14418 2.16186 1.61458 4.04481 1.832 5.49293 z" style="opacity:1;fill:url(#__YNDW_SHFJ__linearGradient11023);fill-opacity:1;fill-rule:evenodd;stroke:none;stroke-width:0.223;stroke-linecap:square;stroke-linejoin:bevel;stroke-miterlimit:4;stroke-dasharray:none;stroke-dashoffset:0;stroke-opacity:1" />
    <path id="__YNDW_SHFJ__path10933" d="m 1039.34097353516 1012.56169845215 c -0.0309 -0.0263 -0.0603 -0.0529 -0.0913 -0.0791 l 0.0358 -0.018 0.0555 0.0971 z m 2.65136 5.66524 c 0.2612 1.34032 0.59576 3.06359 0.54943 5.14004 -0.0367 1.64337 -0.3946 3.39945 -0.78913 5.05582 -0.44314 -0.29363 -0.95941 -0.59342 -1.50921 -0.88572 -4.04279 -2.58665 -10.16583 -4.9556 -12.67358 -4.9208 a 6.27933 6.7348723 87.074774 0 0 -0.74363 -2.80313 c 1.89733 -1.25568 4.45473 -2.17077 9.07365 -2.30815 2.57372 -0.0765 4.59668 0.30527 6.09247 0.72194 z" style="opacity:1;fill:#ffffff;fill-opacity:1;fill-rule:evenodd;stroke:none;stroke-width:0.223;stroke-linecap:square;stroke-linejoin:bevel;stroke-miterlimit:4;stroke-dasharray:none;stroke-dashoffset:0;stroke-opacity:1" />
    <path id="__YNDW_SHFJ__path10935" d="m 1039.37790353516 1012.57041845215 c -0.0309 -0.0263 -0.0603 -0.0529 -0.0913 -0.0792 l 0.0358 -0.018 0.0555 0.0971 z m 2.65136 5.66523 c 0.26119 1.34032 0.59576 3.06359 0.54944 5.14004 -0.0367 1.64337 -0.39462 3.39946 -0.78914 5.05582 -0.44314 -0.29363 -0.95941 -0.59341 -1.50921 -0.88571 -4.04281 -2.58664 -10.16581 -4.95562 -12.67357 -4.92082 a 6.27933 6.7348723 87.074774 0 0 -0.74363 -2.80312 c 1.89729 -1.25566 4.45473 -2.17077 9.07364 -2.30815 2.57373 -0.0765 4.59668 0.30527 6.09247 0.72194 z" style="opacity:1;fill:url(#__YNDW_SHFJ__linearGradient11025);fill-opacity:1;fill-rule:evenodd;stroke:none;stroke-width:0.223;stroke-linecap:square;stroke-linejoin:bevel;stroke-miterlimit:4;stroke-dasharray:none;stroke-dashoffset:0;stroke-opacity:1" />
    <g transform="matrix(-0.34398313,0,0,0.31933374,0,0)" id="__YNDW_SHFJ__g10937">
      <path style="opacity:1;fill:#808080;fill-opacity:1;fill-rule:evenodd;stroke:#f2f2f2;stroke-width:1.01415038;stroke-linecap:square;stroke-linejoin:bevel;stroke-miterlimit:4;stroke-dasharray:none;stroke-dashoffset:0;stroke-opacity:0.00732601" id="__YNDW_SHFJ__path10939" d="m -2958.89795186849 3216.64194573046 a 18.495163 18.49437 0 0 1 -25.41461 -5.50834 18.495163 18.49437 0 0 1 5.21492 -25.47539 18.495163 18.49437 0 0 1 25.53498 4.92036 18.495163 18.49437 0 0 1 -4.62557 25.58896" />
      <path style="opacity:1;fill:#333333;fill-opacity:1;fill-rule:evenodd;stroke:#f2f2f2;stroke-width:1.01415038;stroke-linecap:square;stroke-linejoin:bevel;stroke-miterlimit:4;stroke-dasharray:none;stroke-dashoffset:0;stroke-opacity:0.00732601" d="m -2985.10918186849 3191.99266573046 a 18.495163 18.49437 0 0 0 -0.27148 20.57813 18.495163 18.49437 0 0 0 25.41601 5.50781 l 0.70899 -0.47461 a 18.495163 18.49437 0 0 0 5.65625 -6.3789 18.495163 18.49437 0 0 1 -4.60742 4.6582 l -0.71094 0.47461 a 18.495163 18.49437 0 0 1 -25.41406 -5.50977 18.495163 18.49437 0 0 1 -0.77735 -18.85547 z" id="__YNDW_SHFJ__path10941" />
      <path style="opacity:1;fill:#f2f2f2;fill-opacity:1;fill-rule:evenodd;stroke:#f2f2f2;stroke-width:1.01415038;stroke-linecap:square;stroke-linejoin:bevel;stroke-miterlimit:4;stroke-dasharray:none;stroke-dashoffset:0;stroke-opacity:0.00732601" d="m -2967.38959186849 3181.67948573046 a 18.495163 18.49437 0 0 0 -10.47656 3.11718 18.495163 18.49437 0 0 0 -3.65234 3.21485 18.495163 18.49437 0 0 1 2.2246 -1.75391 18.495163 18.49437 0 0 1 25.53516 4.91992 18.495163 18.49437 0 0 1 -1.31836 22.58985 18.495163 18.49437 0 0 0 2.7461 -24.04883 18.495163 18.49437 0 0 0 -15.0586 -8.03906 z" id="__YNDW_SHFJ__path10943" />
    </g>
  </g>
  <linearGradient id="__YNDW_SHFJ__linearGradient10979" gradientUnits="userSpaceOnUse" gradientTransform="matrix(-0.49431262,0,0,0.46324232,1135.08411353516,552.024048452148)" x1="217.3381" y1="1005.5162" x2="219.6539" y2="984.83344" transform="matrix(1,0,0,1,0,0)" xmlns="http://www.w3.org/2000/svg">
    <stop style="stop-color:#4d4d4d;stop-opacity:1;" offset="0" id="__YNDW_SHFJ__stop23429" />
    <stop style="stop-color:#4d4d4d;stop-opacity:0;" offset="1" id="__YNDW_SHFJ__stop23431" />
  </linearGradient>
  <linearGradient id="__YNDW_SHFJ__linearGradient10981" gradientUnits="userSpaceOnUse" gradientTransform="matrix(1,0,0,1,807.176500827017,1825.23276906238)" x1="217.3381" y1="1005.5162" x2="219.6539" y2="984.83344" transform="matrix(1,0,0,1,0,0)" xmlns="http://www.w3.org/2000/svg">
    <stop style="stop-color:#4d4d4d;stop-opacity:1;" offset="0" id="__YNDW_SHFJ__stop23429" />
    <stop style="stop-color:#4d4d4d;stop-opacity:0;" offset="1" id="__YNDW_SHFJ__stop23431" />
  </linearGradient>
  <linearGradient id="__YNDW_SHFJ__linearGradient10983" gradientUnits="userSpaceOnUse" gradientTransform="matrix(0.24401887,0.40286286,0.42988342,-0.22868093,528.732263535156,1161.99338245215)" x1="217.3381" y1="1005.5162" x2="219.6539" y2="984.83344" transform="matrix(1,0,0,1,0,0)" xmlns="http://www.w3.org/2000/svg">
    <stop style="stop-color:#4d4d4d;stop-opacity:1;" offset="0" id="__YNDW_SHFJ__stop23429" />
    <stop style="stop-color:#4d4d4d;stop-opacity:0;" offset="1" id="__YNDW_SHFJ__stop23431" />
  </linearGradient>
  <linearGradient id="__YNDW_SHFJ__linearGradient10985" gradientUnits="userSpaceOnUse" gradientTransform="matrix(0.4917694,0.04693044,0.05007813,-0.46085896,857.893303535156,1479.71453845215)" x1="217.3381" y1="1005.5162" x2="219.6539" y2="984.83344" transform="matrix(1,0,0,1,0,0)" xmlns="http://www.w3.org/2000/svg">
    <stop style="stop-color:#4d4d4d;stop-opacity:1;" offset="0" id="__YNDW_SHFJ__stop23429" />
    <stop style="stop-color:#4d4d4d;stop-opacity:0;" offset="1" id="__YNDW_SHFJ__stop23431" />
  </linearGradient>
  <linearGradient id="__YNDW_SHFJ__linearGradient10987" gradientUnits="userSpaceOnUse" gradientTransform="matrix(0.29920605,-0.36874067,-0.39347262,-0.28039929,1353.16826353516,1391.03475845215)" x1="217.3381" y1="1005.5162" x2="219.6539" y2="984.83344" transform="matrix(1,0,0,1,0,0)" xmlns="http://www.w3.org/2000/svg">
    <stop style="stop-color:#4d4d4d;stop-opacity:1;" offset="0" id="__YNDW_SHFJ__stop23429" />
    <stop style="stop-color:#4d4d4d;stop-opacity:0;" offset="1" id="__YNDW_SHFJ__stop23431" />
  </linearGradient>
  <linearGradient id="__YNDW_SHFJ__linearGradient10989" gradientUnits="userSpaceOnUse" gradientTransform="matrix(-0.23348395,-0.40830923,-0.43569509,0.21880818,1517.36829353516,893.413418452148)" x1="217.3381" y1="1005.5162" x2="219.6539" y2="984.83344" transform="matrix(1,0,0,1,0,0)" xmlns="http://www.w3.org/2000/svg">
    <stop style="stop-color:#4d4d4d;stop-opacity:1;" offset="0" id="__YNDW_SHFJ__stop23429" />
    <stop style="stop-color:#4d4d4d;stop-opacity:0;" offset="1" id="__YNDW_SHFJ__stop23431" />
  </linearGradient>
  <linearGradient id="__YNDW_SHFJ__linearGradient11003" gradientUnits="userSpaceOnUse" gradientTransform="matrix(-0.49431262,0,0,0.46324232,1135.08412353516,552.024048452148)" x1="217.3381" y1="1005.5162" x2="219.6539" y2="984.83344" transform="matrix(1,0,0,1,0,0)" xmlns="http://www.w3.org/2000/svg">
    <stop style="stop-color:#4d4d4d;stop-opacity:1;" offset="0" id="__YNDW_SHFJ__stop23429" />
    <stop style="stop-color:#4d4d4d;stop-opacity:0;" offset="1" id="__YNDW_SHFJ__stop23431" />
  </linearGradient>
  <linearGradient id="__YNDW_SHFJ__linearGradient11005" gradientUnits="userSpaceOnUse" gradientTransform="matrix(-0.22284803,0.41349604,0.44122979,0.20884079,625.469383535156,714.947338452148)" x1="217.3381" y1="1005.5162" x2="219.6539" y2="984.83344" transform="matrix(1,0,0,1,0,0)" xmlns="http://www.w3.org/2000/svg">
    <stop style="stop-color:#4d4d4d;stop-opacity:1;" offset="0" id="__YNDW_SHFJ__stop23429" />
    <stop style="stop-color:#4d4d4d;stop-opacity:0;" offset="1" id="__YNDW_SHFJ__stop23431" />
  </linearGradient>
  <linearGradient id="__YNDW_SHFJ__linearGradient11007" gradientUnits="userSpaceOnUse" gradientTransform="matrix(0.24401887,0.40286286,0.42988342,-0.22868093,528.732273535156,1161.99337845215)" x1="217.3381" y1="1005.5162" x2="219.6539" y2="984.83344" transform="matrix(1,0,0,1,0,0)" xmlns="http://www.w3.org/2000/svg">
    <stop style="stop-color:#4d4d4d;stop-opacity:1;" offset="0" id="__YNDW_SHFJ__stop23429" />
    <stop style="stop-color:#4d4d4d;stop-opacity:0;" offset="1" id="__YNDW_SHFJ__stop23431" />
  </linearGradient>
  <linearGradient id="__YNDW_SHFJ__linearGradient11009" gradientUnits="userSpaceOnUse" gradientTransform="matrix(0.4917694,0.04693044,0.05007813,-0.46085896,857.893313535156,1479.71453845215)" x1="217.3381" y1="1005.5162" x2="219.6539" y2="984.83344" transform="matrix(1,0,0,1,0,0)" xmlns="http://www.w3.org/2000/svg">
    <stop style="stop-color:#4d4d4d;stop-opacity:1;" offset="0" id="__YNDW_SHFJ__stop23429" />
    <stop style="stop-color:#4d4d4d;stop-opacity:0;" offset="1" id="__YNDW_SHFJ__stop23431" />
  </linearGradient>
  <linearGradient id="__YNDW_SHFJ__linearGradient11011" gradientUnits="userSpaceOnUse" gradientTransform="matrix(0.29920605,-0.36874067,-0.39347262,-0.28039929,1353.16827353516,1391.03475845215)" x1="217.3381" y1="1005.5162" x2="219.6539" y2="984.83344" transform="matrix(1,0,0,1,0,0)" xmlns="http://www.w3.org/2000/svg">
    <stop style="stop-color:#4d4d4d;stop-opacity:1;" offset="0" id="__YNDW_SHFJ__stop23429" />
    <stop style="stop-color:#4d4d4d;stop-opacity:0;" offset="1" id="__YNDW_SHFJ__stop23431" />
  </linearGradient>
  <linearGradient id="__YNDW_SHFJ__linearGradient11013" gradientUnits="userSpaceOnUse" gradientTransform="matrix(-0.23348395,-0.40830923,-0.43569509,0.21880818,1517.36833353516,893.413418452148)" x1="217.3381" y1="1005.5162" x2="219.6539" y2="984.83344" transform="matrix(1,0,0,1,0,0)" xmlns="http://www.w3.org/2000/svg">
    <stop style="stop-color:#4d4d4d;stop-opacity:1;" offset="0" id="__YNDW_SHFJ__stop23429" />
    <stop style="stop-color:#4d4d4d;stop-opacity:0;" offset="1" id="__YNDW_SHFJ__stop23431" />
  </linearGradient>
  <linearGradient id="__YNDW_SHFJ__linearGradient11015" gradientUnits="userSpaceOnUse" gradientTransform="matrix(-0.49431262,0,0,0.46324232,1135.08412353516,552.024048452148)" x1="217.3381" y1="1005.5162" x2="219.6539" y2="984.83344" transform="matrix(1,0,0,1,0,0)" xmlns="http://www.w3.org/2000/svg">
    <stop style="stop-color:#4d4d4d;stop-opacity:1;" offset="0" id="__YNDW_SHFJ__stop23429" />
    <stop style="stop-color:#4d4d4d;stop-opacity:0;" offset="1" id="__YNDW_SHFJ__stop23431" />
  </linearGradient>
  <linearGradient id="__YNDW_SHFJ__linearGradient11017" gradientUnits="userSpaceOnUse" gradientTransform="matrix(-0.22284803,0.41349604,0.44122979,0.20884079,625.469373535156,714.947338452148)" x1="217.3381" y1="1005.5162" x2="219.6539" y2="984.83344" transform="matrix(1,0,0,1,0,0)" xmlns="http://www.w3.org/2000/svg">
    <stop style="stop-color:#4d4d4d;stop-opacity:1;" offset="0" id="__YNDW_SHFJ__stop23429" />
    <stop style="stop-color:#4d4d4d;stop-opacity:0;" offset="1" id="__YNDW_SHFJ__stop23431" />
  </linearGradient>
  <linearGradient id="__YNDW_SHFJ__linearGradient11019" gradientUnits="userSpaceOnUse" gradientTransform="matrix(0.24401887,0.40286286,0.42988342,-0.22868093,528.732263535156,1161.99337845215)" x1="217.3381" y1="1005.5162" x2="219.6539" y2="984.83344" transform="matrix(1,0,0,1,0,0)" xmlns="http://www.w3.org/2000/svg">
    <stop style="stop-color:#4d4d4d;stop-opacity:1;" offset="0" id="__YNDW_SHFJ__stop23429" />
    <stop style="stop-color:#4d4d4d;stop-opacity:0;" offset="1" id="__YNDW_SHFJ__stop23431" />
  </linearGradient>
  <linearGradient id="__YNDW_SHFJ__linearGradient11021" gradientUnits="userSpaceOnUse" gradientTransform="matrix(0.4917694,0.04693044,0.05007813,-0.46085896,857.893303535156,1479.71453845215)" x1="217.3381" y1="1005.5162" x2="219.6539" y2="984.83344" transform="matrix(1,0,0,1,0,0)" xmlns="http://www.w3.org/2000/svg">
    <stop style="stop-color:#4d4d4d;stop-opacity:1;" offset="0" id="__YNDW_SHFJ__stop23429" />
    <stop style="stop-color:#4d4d4d;stop-opacity:0;" offset="1" id="__YNDW_SHFJ__stop23431" />
  </linearGradient>
  <linearGradient id="__YNDW_SHFJ__linearGradient11023" gradientUnits="userSpaceOnUse" gradientTransform="matrix(0.29920605,-0.36874067,-0.39347262,-0.28039929,1353.16828353516,1391.03475845215)" x1="217.3381" y1="1005.5162" x2="219.6539" y2="984.83344" transform="matrix(1,0,0,1,0,0)" xmlns="http://www.w3.org/2000/svg">
    <stop style="stop-color:#4d4d4d;stop-opacity:1;" offset="0" id="__YNDW_SHFJ__stop23429" />
    <stop style="stop-color:#4d4d4d;stop-opacity:0;" offset="1" id="__YNDW_SHFJ__stop23431" />
  </linearGradient>
  <linearGradient id="__YNDW_SHFJ__linearGradient11025" gradientUnits="userSpaceOnUse" gradientTransform="matrix(-0.23348395,-0.40830923,-0.43569509,0.21880818,1517.36828353516,893.413418452148)" x1="217.3381" y1="1005.5162" x2="219.6539" y2="984.83344" transform="matrix(1,0,0,1,0,0)" xmlns="http://www.w3.org/2000/svg">
    <stop style="stop-color:#4d4d4d;stop-opacity:1;" offset="0" id="__YNDW_SHFJ__stop23429" />
    <stop style="stop-color:#4d4d4d;stop-opacity:0;" offset="1" id="__YNDW_SHFJ__stop23431" />
  </linearGradient>
</svg>