<?xml version="1.0" encoding="UTF-8"?>
<svg version="1.1" xmlns="http://www.w3.org/2000/svg" xmlns:xlink="http://www.w3.org/1999/xlink" viewBox="1000,1000,200,200">
  <g id="__YNDW_SXDG__g23284" transform="matrix(3.5433071,0,0,3.5433071,0,0)" xmlns="http://www.w3.org/2000/svg">
    <g id="__YNDW_SXDG__g2852-9-3" transform="matrix(0.25184779,0,0,0.17351856,0,0)">
      <rect style="fill:#e6e6e6;stroke-width:0.18048" id="__YNDW_SXDG__rect2840-9-2" width="7.1995487" height="3.7516773" x="646.466038987202" y="1042.05313057646" transform="matrix(1.7475696,0,0,1.6020097,0,0)" />
      <g id="__YNDW_SXDG__g2781-2-1" transform="matrix(1.7475696,0,0,1.6020097,0,0)" style="fill:#b3b3b3">
        <rect style="fill:#b3b3b3;stroke-width:0.27758199" id="__YNDW_SXDG__rect2721-0-9" width="7.6706352" height="1.4967093" x="646.206849987202" y="1045.25036057646" />
        <path style="fill:#b3b3b3;stroke-width:0.26458299" id="__YNDW_SXDG__path2531-5-0" d="m 653.874910987202 1046.63579057646 a 3.8364582 1.5378906 0 0 1 -1.928759 1.34856 3.8364582 1.5378906 0 0 1 -3.877675 -0.0147 3.8364582 1.5378906 0 0 1 -1.864795 -1.36295" />
        <path style="fill:#b3b3b3;stroke-width:0.26458299" id="__YNDW_SXDG__path2531-1-9-5" d="m 653.891447987202 1045.23020057646 a 3.8364582 1.5378906 0 0 1 -1.899343 1.34173 3.8364582 1.5378906 0 0 1 -3.848451 0.006 3.8364582 1.5378906 0 0 1 -1.924953 -1.33586" />
      </g>
    </g>
    <g id="__YNDW_SXDG__g2781-7-7-1" transform="matrix(0.98700955,0,0,0.27797842,0,0)" style="fill:#b3b3b3">
      <rect style="fill:#b3b3b3;stroke-width:0.27758199" id="__YNDW_SXDG__rect2721-4-8-2" width="7.6706352" height="1.4967093" x="286.051421302294" y="1039.74772809079" />
      <path style="fill:#b3b3b3;stroke-width:0.26458299" id="__YNDW_SXDG__path2531-17-91-0" d="m 293.719482302294 1041.13315809079 a 3.8364582 1.5378906 0 0 1 -1.928759 1.34856 3.8364582 1.5378906 0 0 1 -3.877675 -0.0147 3.8364582 1.5378906 0 0 1 -1.864795 -1.36295" />
      <path style="fill:#b3b3b3;stroke-width:0.26458299" id="__YNDW_SXDG__path2531-1-8-1-5" d="m 293.736019302294 1039.72756809079 a 3.8364582 1.5378906 0 0 1 -1.899343 1.34173 3.8364582 1.5378906 0 0 1 -3.848451 0.006 3.8364582 1.5378906 0 0 1 -1.924953 -1.33586" />
    </g>
    <g id="__YNDW_SXDG__g2781-7-3-5-8" transform="matrix(0.98700952,0,0,-0.28469674,0,0)" style="fill:#b3b3b3">
      <rect style="fill:#b3b3b3;stroke-width:0.27758199" id="__YNDW_SXDG__rect2721-4-0-5-7" width="7.6706352" height="1.4967093" x="286.046821134108" y="-1012.38126990564" />
      <path style="fill:#b3b3b3;stroke-width:0.26458299" id="__YNDW_SXDG__path2531-17-9-8-7" d="m 293.714882134108 -1010.99583990564 a 3.8364582 1.5378906 0 0 1 -1.928759 1.34856 3.8364582 1.5378906 0 0 1 -3.877675 -0.0147 3.8364582 1.5378906 0 0 1 -1.864795 -1.36295" />
      <path style="fill:#b3b3b3;stroke-width:0.26458299" id="__YNDW_SXDG__path2531-1-8-8-1-2" d="m 293.731419134108 -1012.40142990564 a 3.8364582 1.5378906 0 0 1 -1.899343 1.34173 3.8364582 1.5378906 0 0 1 -3.848451 0.006 3.8364582 1.5378906 0 0 1 -1.924953 -1.33586" />
    </g>
    <rect style="fill:#e6e6e6;stroke-width:0.102146" id="__YNDW_SXDG__rect2943-9-1" width="7.7464151" height="1.5747116" x="282.226603170147" y="287.802029339024" />
    <path style="fill:#ff5555;stroke-width:0.0689097" id="__YNDW_SXDG__path3038-9-6" d="m 289.641652170147 -285.359662339024 a 3.5986276 2.5741167 0 0 1 -1.781598 2.245797 3.5986276 2.5741167 0 0 1 -3.609877 0.0099 3.5986276 2.5741167 0 0 1 -1.805621 -2.235959" transform="matrix(1,0,0,-1,0,0)" />
    <path style="fill:#ff5555;stroke-width:0.05531" d="m 282.461698170147 285.221675339024 -0.138788 2.555984 1.032838 -0.24103 5.264144 -0.0344 1.249401 0.28694 -0.255399 -2.533807" id="__YNDW_SXDG__path3094-5-6" />
  </g>
  <g id="__YNDW_SXDG__g3113-8" transform="matrix(0.89237405,0,0,0.61482954,0,0)" xmlns="http://www.w3.org/2000/svg">
    <g id="__YNDW_SXDG__g2852-9">
      <rect style="fill:#e6e6e6;stroke-width:0.18048" id="__YNDW_SXDG__rect2840-9" width="7.1995487" height="3.7516773" x="646.456082490455" y="1041.55610140875" transform="matrix(1.7475696,0,0,1.6020097,0,0)" />
      <g id="__YNDW_SXDG__g2781-2" transform="matrix(1.7475696,0,0,1.6020097,0,0)" style="fill:#b3b3b3">
        <rect style="fill:#b3b3b3;stroke-width:0.27758199" id="__YNDW_SXDG__rect2721-0" width="7.6706352" height="1.4967093" x="646.196893490455" y="1044.75333140875" />
        <path style="fill:#b3b3b3;stroke-width:0.26458299" id="__YNDW_SXDG__path2531-5" d="m 653.864954490455 1046.13876140875 a 3.8364582 1.5378906 0 0 1 -1.928759 1.34856 3.8364582 1.5378906 0 0 1 -3.877675 -0.0147 3.8364582 1.5378906 0 0 1 -1.864795 -1.36295" />
        <path style="fill:#b3b3b3;stroke-width:0.26458299" id="__YNDW_SXDG__path2531-1-9" d="m 653.881491490455 1044.73317140875 a 3.8364582 1.5378906 0 0 1 -1.899343 1.34173 3.8364582 1.5378906 0 0 1 -3.848451 0.006 3.8364582 1.5378906 0 0 1 -1.924953 -1.33586" />
      </g>
    </g>
    <g id="__YNDW_SXDG__g2781-7-7" transform="matrix(3.9190717,0,0,1.6020097,0,0)" style="fill:#b3b3b3">
      <rect style="fill:#b3b3b3;stroke-width:0.27758199" id="__YNDW_SXDG__rect2721-4-8" width="7.6706352" height="1.4967093" x="286.046982881527" y="1039.2507117929" />
      <path style="fill:#b3b3b3;stroke-width:0.26458299" id="__YNDW_SXDG__path2531-17-91" d="m 293.715043881527 1040.6361417929 a 3.8364582 1.5378906 0 0 1 -1.928759 1.34856 3.8364582 1.5378906 0 0 1 -3.877675 -0.0147 3.8364582 1.5378906 0 0 1 -1.864795 -1.36295" />
      <path style="fill:#b3b3b3;stroke-width:0.26458299" id="__YNDW_SXDG__path2531-1-8-1" d="m 293.731580881527 1039.2305517929 a 3.8364582 1.5378906 0 0 1 -1.899343 1.34173 3.8364582 1.5378906 0 0 1 -3.848451 0.006 3.8364582 1.5378906 0 0 1 -1.924953 -1.33586" />
    </g>
    <g id="__YNDW_SXDG__g2781-7-3-5" transform="matrix(3.9190716,0,0,-1.6407279,0,0)" style="fill:#b3b3b3">
      <rect style="fill:#b3b3b3;stroke-width:0.27758199" id="__YNDW_SXDG__rect2721-4-0-5" width="7.6706352" height="1.4967093" x="286.042381102943" y="-1011.89596465296" />
      <path style="fill:#b3b3b3;stroke-width:0.26458299" id="__YNDW_SXDG__path2531-17-9-8" d="m 293.710442102943 -1010.51053465296 a 3.8364582 1.5378906 0 0 1 -1.928759 1.34856 3.8364582 1.5378906 0 0 1 -3.877675 -0.0147 3.8364582 1.5378906 0 0 1 -1.864795 -1.36295" />
      <path style="fill:#b3b3b3;stroke-width:0.26458299" id="__YNDW_SXDG__path2531-1-8-8-1" d="m 293.726979102943 -1011.91612465296 a 3.8364582 1.5378906 0 0 1 -1.899343 1.34173 3.8364582 1.5378906 0 0 1 -3.848451 0.006 3.8364582 1.5378906 0 0 1 -1.924953 -1.33586" />
    </g>
    <rect style="fill:#e6e6e6;stroke-width:0.48862699" id="__YNDW_SXDG__rect2943-9" width="30.758322" height="9.0751762" x="1120.60630836136" y="1657.8276406519" />
    <path style="fill:#e6e6e6;stroke-width:0.32963899" id="__YNDW_SXDG__path3038-9" d="m 1150.04888736136 -1643.7521206519 a 14.288898 14.834821 0 0 1 -7.07411 12.94269 14.288898 14.834821 0 0 1 -14.333565 0.0571 14.288898 14.834821 0 0 1 -7.169491 -12.886" transform="matrix(1,0,0,-1,0,0)" />
    <path style="fill:#e6e6e6;stroke-width:0.26458299" d="m 1121.45172636136 1643.5320206519 -0.463021 14.15521 4.101041 -1.38906 20.902084 -0.19844 4.960937 1.65365 L 1150.02672536136,1643.5981706519" id="__YNDW_SXDG__path3094-5" />
  </g>
</svg>