<?xml version="1.0" encoding="UTF-8"?>
<svg version="1.1" xmlns="http://www.w3.org/2000/svg" xmlns:xlink="http://www.w3.org/1999/xlink" viewBox="1000,1000,200,200">
  <g id="__YNDW_SXSB__g2067-9" transform="matrix(1.3399127,0,0,1.3446677,0,0)" xmlns="http://www.w3.org/2000/svg">
    <rect style="fill:#ff5555;stroke-width:0.26458299" id="__YNDW_SXSB__rect1197-9" width="17.124531" height="17.500893" x="749.852129910939" y="746.271246703252" ry="0" />
    <path style="fill:#ff8080;stroke-width:0.352815" d="m 766.855320910939 746.263396703252 3.750494 0.25091 0.334617 15.50147 -4.015402 1.75636" id="__YNDW_SXSB__path1357-6" />
    <path style="fill:#ff5555;stroke-width:0.16870999" id="__YNDW_SXSB__path1359-3" d="m 770.050237910939 754.346486703252 a 1.1604536 1.7877256 0 0 1 -1.13632 1.8039 1.1604536 1.7877256 0 0 1 -1.183934 -1.7297 1.1604536 1.7877256 0 0 1 1.109111 -1.84365 1.1604536 1.7877256 0 0 1 1.209423 1.68733" />
    <path style="fill:#ffaaaa;stroke-width:0.253362" id="__YNDW_SXSB__path1465-4" d="m 769.791506910939 754.384266703252 a 0.89738923 1.5016959 0 0 1 -0.878727 1.51528 0.89738923 1.5016959 0 0 1 -0.915547 -1.45296 0.89738923 1.5016959 0 0 1 0.857686 -1.54867 0.89738923 1.5016959 0 0 1 0.935258 1.41736" />
    <rect style="fill:#f9f9f9;stroke-width:0.26458299" id="__YNDW_SXSB__rect1571-0" width="12.641129" height="7.0967741" x="753.199670910939" y="750.803006703252" />
    <path style="fill:#ff8080;stroke-width:0.26458299" d="m 753.176669910939 757.860096703252 -0.78409 0.61159 13.454989 0.1725 0.01569 -0.75273" id="__YNDW_SXSB__path1679-3" />
    <path style="fill:#ff0000;stroke-width:0.26662099" d="m 752.390193910939 758.454226703252 0.01109 -7.72447 0.920363 0.1126 -0.110886 6.9813" id="__YNDW_SXSB__path1735-8" />
    <rect style="fill:#999999;stroke-width:0.194452" id="__YNDW_SXSB__rect1737-5" width="2.6659038" height="0.59590983" x="760.045301910939" y="751.791236703252" />
    <rect style="fill:#999999;stroke-width:0.194452" id="__YNDW_SXSB__rect1737-0-7" width="2.6659038" height="0.59590983" x="760.092348910939" y="755.978286703252" />
    <path style="fill:#999999;stroke-width:0.26458299" id="__YNDW_SXSB__path1813-1" d="m 759.229824910939 752.085846703252 a 0.51749951 0.36068147 0 0 1 -0.506737 0.36394 0.51749951 0.36068147 0 0 1 -0.527971 -0.34897 0.51749951 0.36068147 0 0 1 0.494604 -0.37197 0.51749951 0.36068147 0 0 1 0.539337 0.34043" />
    <path style="fill:#999999;stroke-width:0.26458299" id="__YNDW_SXSB__path1813-5-9" d="m 759.276867910939 756.272896703252 a 0.51749951 0.36068147 0 0 1 -0.506738 0.36395 0.51749951 0.36068147 0 0 1 -0.52797 -0.34898 0.51749951 0.36068147 0 0 1 0.494604 -0.37196 0.51749951 0.36068147 0 0 1 0.539337 0.34042" />
    <path style="fill:#000000;stroke-width:0.26458299" id="__YNDW_SXSB__path1837-1" d="m 759.417995910939 754.215366703252 a 0.73704475 0.70568115 0 0 1 -0.721716 0.71207 0.73704475 0.70568115 0 0 1 -0.751958 -0.68278 0.73704475 0.70568115 0 0 1 0.704435 -0.72776 0.73704475 0.70568115 0 0 1 0.768147 0.66605" />
    <rect style="fill:#000000;stroke-width:0.26458299" id="__YNDW_SXSB__rect1943-1" width="1.6936347" height="0.5018177" x="761.488027910939" y="753.955316703252" />
    <rect style="fill:#000000;stroke-width:0.26458299" id="__YNDW_SXSB__rect1943-3-2" width="1.6936347" height="0.5018177" x="754.462579910939" y="754.049416703252" />
    <path style="fill:#000000;stroke-width:0.26458299" d="m 756.138177910939 754.007646703252 0.01109 -0.4879 0.643147 0.84274 -0.632058 0.70968" id="__YNDW_SXSB__path2021-7" />
    <path style="fill:#000000;stroke-width:0.260059" d="m 761.477390910939 753.863496703252 -0.01071 -0.4879 -0.621339 0.84274 0.610626 0.70968" id="__YNDW_SXSB__path2021-4-7" />
    <path style="fill:#000000;stroke-width:0.26458299" id="__YNDW_SXSB__path2045-9" d="m 761.895732910939 761.290056703252 a 0.58022672 0.4704541 0 0 1 -0.56816 0.47471 0.58022672 0.4704541 0 0 1 -0.591967 -0.45519 0.58022672 0.4704541 0 0 1 0.554556 -0.48517 0.58022672 0.4704541 0 0 1 0.604711 0.44404" />
    <path style="fill:#000000;stroke-width:0.26826999" d="m 763.310435910939 760.782846703252 -0.297257 0.98873 2.651538 0.0425 0.309147 -0.97808" id="__YNDW_SXSB__path2047-6" />
  </g>
  <g id="__YNDW_SXSB__g2067-9-8" transform="matrix(1.3399127,0,0,1.3446677,0,0)" xmlns="http://www.w3.org/2000/svg">
    <rect style="fill:#ff5555;stroke-width:0.26458299" id="__YNDW_SXSB__rect1197-9-8" width="17.124531" height="17.500893" x="749.852129910939" y="746.271246703252" ry="0" />
    <path style="fill:#ffffff;fill-opacity:1;stroke:#3f90d5;stroke-width:0;stroke-dasharray:none;stroke-opacity:0" d="m 753.430765910939 750.291716703252 0.131189 6.47187 11.597362 0.0139 0.362646 -6.42854" id="__YNDW_SXSB__path56272" />
    <path style="fill:#ff8080;stroke-width:0.352815" d="m 766.855320910939 746.263396703252 3.750494 0.25091 0.334617 15.50147 -4.015402 1.75636" id="__YNDW_SXSB__path1357-6-5" />
    <path style="fill:#ff5555;stroke-width:0.16870999" id="__YNDW_SXSB__path1359-3-3" d="m 770.050237910939 754.346486703252 a 1.1604536 1.7877256 0 0 1 -1.13632 1.8039 1.1604536 1.7877256 0 0 1 -1.183934 -1.7297 1.1604536 1.7877256 0 0 1 1.109111 -1.84365 1.1604536 1.7877256 0 0 1 1.209423 1.68733" />
    <path style="fill:#ffaaaa;stroke-width:0.253362" id="__YNDW_SXSB__path1465-4-7" d="m 769.791506910939 754.384266703252 a 0.89738923 1.5016959 0 0 1 -0.878727 1.51528 0.89738923 1.5016959 0 0 1 -0.915547 -1.45296 0.89738923 1.5016959 0 0 1 0.857686 -1.54867 0.89738923 1.5016959 0 0 1 0.935258 1.41736" />
    <path style="fill:#ff8080;stroke-width:0.26458299" d="m 753.547726910939 756.781676703252 -1.155147 1.69001 13.454989 0.1725 -0.664582 -1.84656" id="__YNDW_SXSB__path1679-3-1" />
    <path style="fill:#ff0000;stroke-width:0.26662099" d="m 752.390193910939 758.454226703252 0.02655 -7.81691 0.997666 0.14342 0.08059 6.0407" id="__YNDW_SXSB__path1735-8-43" />
    <rect style="fill:#999999;stroke-width:0.194452" id="__YNDW_SXSB__rect1737-5-6" width="2.6659038" height="0.59590983" x="760.045301910939" y="751.791236703252" />
    <rect style="fill:#999999;stroke-width:0.194452" id="__YNDW_SXSB__rect1737-0-7-2" width="2.6659038" height="0.59590983" x="760.092348910939" y="755.978286703252" />
    <path style="fill:#999999;stroke-width:0.26458299" id="__YNDW_SXSB__path1813-1-5" d="m 759.229824910939 752.085846703252 a 0.51749951 0.36068147 0 0 1 -0.506737 0.36394 0.51749951 0.36068147 0 0 1 -0.527971 -0.34897 0.51749951 0.36068147 0 0 1 0.494604 -0.37197 0.51749951 0.36068147 0 0 1 0.539337 0.34043" />
    <path style="fill:#999999;stroke-width:0.26458299" id="__YNDW_SXSB__path1813-5-9-2" d="m 759.276867910939 756.272896703252 a 0.51749951 0.36068147 0 0 1 -0.506738 0.36395 0.51749951 0.36068147 0 0 1 -0.52797 -0.34898 0.51749951 0.36068147 0 0 1 0.494604 -0.37196 0.51749951 0.36068147 0 0 1 0.539337 0.34042" />
    <path style="fill:#000000;stroke-width:0.26458299" id="__YNDW_SXSB__path1837-1-77" d="m 759.417995910939 754.215366703252 a 0.73704475 0.70568115 0 0 1 -0.721716 0.71207 0.73704475 0.70568115 0 0 1 -0.751958 -0.68278 0.73704475 0.70568115 0 0 1 0.704435 -0.72776 0.73704475 0.70568115 0 0 1 0.768147 0.66605" />
    <rect style="fill:#000000;stroke-width:0.26458299" id="__YNDW_SXSB__rect1943-1-63" width="1.6936347" height="0.5018177" x="761.488027910939" y="753.955316703252" />
    <rect style="fill:#000000;stroke-width:0.26458299" id="__YNDW_SXSB__rect1943-3-2-1" width="1.6936347" height="0.5018177" x="754.462579910939" y="754.049416703252" />
    <path style="fill:#000000;stroke-width:0.26458299" d="m 756.138177910939 754.007646703252 0.01109 -0.4879 0.643147 0.84274 -0.632058 0.70968" id="__YNDW_SXSB__path2021-7-8" />
    <path style="fill:#000000;stroke-width:0.260059" d="m 761.477390910939 753.863496703252 -0.01071 -0.4879 -0.621339 0.84274 0.610626 0.70968" id="__YNDW_SXSB__path2021-4-7-0" />
    <path style="fill:#000000;stroke-width:0.26458299" id="__YNDW_SXSB__path2045-9-8" d="m 761.895732910939 761.290056703252 a 0.58022672 0.4704541 0 0 1 -0.56816 0.47471 0.58022672 0.4704541 0 0 1 -0.591967 -0.45519 0.58022672 0.4704541 0 0 1 0.554556 -0.48517 0.58022672 0.4704541 0 0 1 0.604711 0.44404" />
    <path style="fill:#000000;stroke-width:0.26826999" d="m 763.310435910939 760.782846703252 -0.297257 0.98873 2.651538 0.0425 0.309147 -0.97808" id="__YNDW_SXSB__path2047-6-9" />
    <path style="fill:#ff0000;fill-opacity:1;stroke:#3f90d5;stroke-width:0;stroke-dasharray:none;stroke-opacity:0" d="m 765.552881910939 750.882616703252 0.386518 -0.52381 -0.04638 8.33468 -0.742115 -1.94117" id="__YNDW_SXSB__path56274" />
    <path style="fill:#1a1a1a;fill-opacity:1;stroke:#3f90d5;stroke-width:0;stroke-dasharray:none;stroke-opacity:0" d="m 753.529508910939 756.768366703252 11.588324 0 0.218648 0.41396 -11.98189 -0.0872" id="__YNDW_SXSB__path57530" />
  </g>
  <g id="__YNDW_SXSB__g54906" transform="matrix(3.5433071,0,0,3.5433071,0,0)" xmlns="http://www.w3.org/2000/svg">
    <g id="__YNDW_SXSB__g2067-9-0" transform="matrix(0.37815315,0,0,0.37949512,0,0)">
      <rect style="fill:#ff5555;stroke-width:0.26458299" id="__YNDW_SXSB__rect1197-9-2" width="17.124531" height="17.500893" x="749.852108337314" y="745.762093174252" ry="0" />
      <path style="fill:#ff8080;stroke-width:0.352815" d="m 766.855299337314 745.754243174252 3.750494 0.25091 0.334617 15.50147 -4.015402 1.75636" id="__YNDW_SXSB__path1357-6-0" />
      <path style="fill:#ff5555;stroke-width:0.16870999" id="__YNDW_SXSB__path1359-3-1" d="m 770.050216337314 753.837333174252 a 1.1604536 1.7877256 0 0 1 -1.13632 1.8039 1.1604536 1.7877256 0 0 1 -1.183934 -1.7297 1.1604536 1.7877256 0 0 1 1.109111 -1.84365 1.1604536 1.7877256 0 0 1 1.209423 1.68733" />
      <path style="fill:#ffaaaa;stroke-width:0.253362" id="__YNDW_SXSB__path1465-4-0" d="m 769.791485337314 753.875113174252 a 0.89738923 1.5016959 0 0 1 -0.878727 1.51528 0.89738923 1.5016959 0 0 1 -0.915547 -1.45296 0.89738923 1.5016959 0 0 1 0.857686 -1.54867 0.89738923 1.5016959 0 0 1 0.935258 1.41736" />
      <rect style="fill:#f9f9f9;stroke-width:0.26458299" id="__YNDW_SXSB__rect1571-0-6" width="12.641129" height="7.0967741" x="753.199649337314" y="750.293853174252" />
      <path style="fill:#ff8080;stroke-width:0.26458299" d="m 753.176648337314 757.350943174252 -0.78409 0.61159 13.454989 0.1725 0.01569 -0.75273" id="__YNDW_SXSB__path1679-3-9" />
      <path style="fill:#ff0000;stroke-width:0.26662099" d="m 752.390172337314 757.945073174252 0.01109 -7.72447 0.920363 0.1126 -0.110886 6.9813" id="__YNDW_SXSB__path1735-8-4" />
      <rect style="fill:#999999;stroke-width:0.194452" id="__YNDW_SXSB__rect1737-5-3" width="2.6659038" height="0.59590983" x="760.045280337314" y="751.282083174252" />
      <rect style="fill:#999999;stroke-width:0.194452" id="__YNDW_SXSB__rect1737-0-7-0" width="2.6659038" height="0.59590983" x="760.092327337314" y="755.469133174252" />
      <path style="fill:#999999;stroke-width:0.26458299" id="__YNDW_SXSB__path1813-1-9" d="m 759.229803337314 751.576693174252 a 0.51749951 0.36068147 0 0 1 -0.506737 0.36394 0.51749951 0.36068147 0 0 1 -0.527971 -0.34897 0.51749951 0.36068147 0 0 1 0.494604 -0.37197 0.51749951 0.36068147 0 0 1 0.539337 0.34043" />
      <path style="fill:#999999;stroke-width:0.26458299" id="__YNDW_SXSB__path1813-5-9-1" d="m 759.276846337314 755.763743174252 a 0.51749951 0.36068147 0 0 1 -0.506738 0.36395 0.51749951 0.36068147 0 0 1 -0.52797 -0.34898 0.51749951 0.36068147 0 0 1 0.494604 -0.37196 0.51749951 0.36068147 0 0 1 0.539337 0.34042" />
      <path style="fill:#000000;stroke-width:0.26458299" id="__YNDW_SXSB__path1837-1-7" d="m 759.417974337314 753.706213174252 a 0.73704475 0.70568115 0 0 1 -0.721716 0.71207 0.73704475 0.70568115 0 0 1 -0.751958 -0.68278 0.73704475 0.70568115 0 0 1 0.704435 -0.72776 0.73704475 0.70568115 0 0 1 0.768147 0.66605" />
      <rect style="fill:#000000;stroke-width:0.26458299" id="__YNDW_SXSB__rect1943-1-6" width="1.6936347" height="0.5018177" x="761.488006337314" y="753.446163174252" />
      <rect style="fill:#000000;stroke-width:0.26458299" id="__YNDW_SXSB__rect1943-3-2-5" width="1.6936347" height="0.5018177" x="754.462558337314" y="753.540263174252" />
      <path style="fill:#000000;stroke-width:0.26458299" d="m 756.138156337314 753.498493174252 0.01109 -0.4879 0.643147 0.84274 -0.632058 0.70968" id="__YNDW_SXSB__path2021-7-7" />
      <path style="fill:#000000;stroke-width:0.260059" d="m 761.477369337314 753.354343174252 -0.01071 -0.4879 -0.621339 0.84274 0.610626 0.70968" id="__YNDW_SXSB__path2021-4-7-7" />
      <path style="fill:#000000;stroke-width:0.26458299" id="__YNDW_SXSB__path2045-9-0" d="m 761.895711337314 760.780903174252 a 0.58022672 0.4704541 0 0 1 -0.56816 0.47471 0.58022672 0.4704541 0 0 1 -0.591967 -0.45519 0.58022672 0.4704541 0 0 1 0.554556 -0.48517 0.58022672 0.4704541 0 0 1 0.604711 0.44404" />
      <path style="fill:#000000;stroke-width:0.26826999" d="m 763.310414337314 760.273693174252 -0.297257 0.98873 2.651538 0.0425 0.309147 -0.97808" id="__YNDW_SXSB__path2047-6-1" />
    </g>
    <g id="__YNDW_SXSB__g54757-8">
      <path style="fill:#1a1a1a;fill-opacity:1;stroke:#000000;stroke-width:0" d="m 287.379384657957 290.041000122195 4.068348 -0.0078 -2.054095 -3.116573" id="__YNDW_SXSB__path21026-2-3-0-1" />
      <path style="fill:#ffff00;fill-opacity:1;stroke:#000000;stroke-width:0" d="m 287.553348657957 289.936194122196 3.705237 -0.01107 -1.858331 -2.811285" id="__YNDW_SXSB__path21026-27-8-6" />
      <path style="fill:#1a1a1a;fill-opacity:1;stroke:#3f90d5;stroke-width:0;stroke-dasharray:none;stroke-opacity:0" id="__YNDW_SXSB__path54608-8" d="m 289.555033657957 -289.602769122195 a 0.2313066 0.18426119 0 0 1 -0.225895 0.185918 0.2313066 0.18426119 0 0 1 -0.236546 -0.177312 0.2313066 0.18426119 0 0 1 0.219229 -0.190915 0.2313066 0.18426119 0 0 1 0.242724 0.171932" transform="matrix(1,0,0,-1,0,0)" />
      <path style="fill:#1a1a1a;fill-opacity:1;stroke:#3f90d5;stroke-width:0;stroke-dasharray:none;stroke-opacity:0" d="m 289.322953657957 289.311373122195 0.0047 -0.000368 0.376365 -1.234943 c -0.232613 -0.232561 -0.465227 -0.287495 -0.69784 0.01175 z" id="__YNDW_SXSB__path54664-1" />
    </g>
  </g>
  <g id="__YNDW_SXSB__g54965" transform="matrix(3.5433071,0,0,3.5433071,0,0)" xmlns="http://www.w3.org/2000/svg">
    <g id="__YNDW_SXSB__g2067-9-5" transform="matrix(0.37815315,0,0,0.37949512,0,0)">
      <rect style="fill:#ff5555;stroke-width:0.26458299" id="__YNDW_SXSB__rect1197-9-89" width="17.124531" height="17.500893" x="749.686232648651" y="746.271223419625" ry="0" />
      <path style="fill:#ff8080;stroke-width:0.352815" d="m 766.689423648651 746.263373419624 3.750494 0.25091 0.334617 15.50147 -4.015402 1.75636" id="__YNDW_SXSB__path1357-6-8" />
      <path style="fill:#ff5555;stroke-width:0.16870999" id="__YNDW_SXSB__path1359-3-7" d="m 769.884340648651 754.346463419625 a 1.1604536 1.7877256 0 0 1 -1.13632 1.8039 1.1604536 1.7877256 0 0 1 -1.183934 -1.7297 1.1604536 1.7877256 0 0 1 1.109111 -1.84365 1.1604536 1.7877256 0 0 1 1.209423 1.68733" />
      <path style="fill:#ffaaaa;stroke-width:0.253362" id="__YNDW_SXSB__path1465-4-8" d="m 769.625609648651 754.384243419625 a 0.89738923 1.5016959 0 0 1 -0.878727 1.51528 0.89738923 1.5016959 0 0 1 -0.915547 -1.45296 0.89738923 1.5016959 0 0 1 0.857686 -1.54867 0.89738923 1.5016959 0 0 1 0.935258 1.41736" />
      <rect style="fill:#f9f9f9;stroke-width:0.26458299" id="__YNDW_SXSB__rect1571-0-3" width="12.641129" height="7.0967741" x="753.033773648651" y="750.802983419625" />
      <path style="fill:#ff8080;stroke-width:0.26458299" d="m 753.010772648651 757.860073419625 -0.78409 0.61159 13.454989 0.1725 0.01569 -0.75273" id="__YNDW_SXSB__path1679-3-8" />
      <path style="fill:#ff0000;stroke-width:0.26662099" d="m 752.224296648651 758.454203419624 0.01109 -7.72447 0.920363 0.1126 -0.110886 6.9813" id="__YNDW_SXSB__path1735-8-3" />
      <rect style="fill:#999999;stroke-width:0.194452" id="__YNDW_SXSB__rect1737-5-4" width="2.6659038" height="0.59590983" x="759.879404648651" y="751.791213419625" />
      <rect style="fill:#999999;stroke-width:0.194452" id="__YNDW_SXSB__rect1737-0-7-6" width="2.6659038" height="0.59590983" x="759.926451648651" y="755.978263419625" />
      <path style="fill:#999999;stroke-width:0.26458299" id="__YNDW_SXSB__path1813-1-7" d="m 759.063927648651 752.085823419625 a 0.51749951 0.36068147 0 0 1 -0.506737 0.36394 0.51749951 0.36068147 0 0 1 -0.527971 -0.34897 0.51749951 0.36068147 0 0 1 0.494604 -0.37197 0.51749951 0.36068147 0 0 1 0.539337 0.34043" />
      <path style="fill:#999999;stroke-width:0.26458299" id="__YNDW_SXSB__path1813-5-9-7" d="m 759.110970648651 756.272873419625 a 0.51749951 0.36068147 0 0 1 -0.506738 0.36395 0.51749951 0.36068147 0 0 1 -0.52797 -0.34898 0.51749951 0.36068147 0 0 1 0.494604 -0.37196 0.51749951 0.36068147 0 0 1 0.539337 0.34042" />
      <path style="fill:#000000;stroke-width:0.26458299" id="__YNDW_SXSB__path1837-1-8" d="m 759.252098648651 754.215343419625 a 0.73704475 0.70568115 0 0 1 -0.721716 0.71207 0.73704475 0.70568115 0 0 1 -0.751958 -0.68278 0.73704475 0.70568115 0 0 1 0.704435 -0.72776 0.73704475 0.70568115 0 0 1 0.768147 0.66605" />
      <rect style="fill:#000000;stroke-width:0.26458299" id="__YNDW_SXSB__rect1943-1-9" width="1.6936347" height="0.5018177" x="761.322130648651" y="753.955293419624" />
      <rect style="fill:#000000;stroke-width:0.26458299" id="__YNDW_SXSB__rect1943-3-2-9" width="1.6936347" height="0.5018177" x="754.296682648651" y="754.049393419624" />
      <path style="fill:#000000;stroke-width:0.26458299" d="m 755.972280648651 754.007623419625 0.01109 -0.4879 0.643147 0.84274 -0.632058 0.70968" id="__YNDW_SXSB__path2021-7-2" />
      <path style="fill:#000000;stroke-width:0.260059" d="m 761.311493648651 753.863473419625 -0.01071 -0.4879 -0.621339 0.84274 0.610626 0.70968" id="__YNDW_SXSB__path2021-4-7-1" />
      <path style="fill:#000000;stroke-width:0.26458299" id="__YNDW_SXSB__path2045-9-05" d="m 761.729835648651 761.290033419624 a 0.58022672 0.4704541 0 0 1 -0.56816 0.47471 0.58022672 0.4704541 0 0 1 -0.591967 -0.45519 0.58022672 0.4704541 0 0 1 0.554556 -0.48517 0.58022672 0.4704541 0 0 1 0.604711 0.44404" />
      <path style="fill:#000000;stroke-width:0.26826999" d="m 763.144538648651 760.782823419624 -0.297257 0.98873 2.651538 0.0425 0.309147 -0.97808" id="__YNDW_SXSB__path2047-6-4" />
    </g>
    <g id="__YNDW_SXSB__g7427-2" transform="matrix(1.2278458,0,0,1.1961507,0,0)">
      <path style="fill:#ff9494;fill-opacity:0.53721702;stroke:#3f90d5;stroke-width:0;stroke-dasharray:none;stroke-dashoffset:0;stroke-opacity:0" d="m 238.174515357892 235.944528862456 -7.944653 -0.0025 0 0.29262 7.940402 0.000368" id="__YNDW_SXSB__path6368-27-68-3" />
      <path style="fill:#ff9494;fill-opacity:0.53721702;stroke:#3f90d5;stroke-width:0;stroke-dasharray:none;stroke-dashoffset:0;stroke-opacity:0" d="m 238.148976357892 242.847201862456 -7.947757 -0.0025 0 0.29262 7.948674 -0.000666" id="__YNDW_SXSB__path6368-1-2-4" />
      <path style="fill:#ff9494;fill-opacity:0.53721702;stroke:#3f90d5;stroke-width:0;stroke-dasharray:none;stroke-dashoffset:0;stroke-opacity:0" d="m 238.493845357892 243.132419862456 0.0298 -7.183119 -0.351623 -0.000906 -0.02599 7.183959" id="__YNDW_SXSB__path6368-27-44-6-8" />
      <path style="fill:#ff9494;fill-opacity:0.53721702;stroke:#3f90d5;stroke-width:0;stroke-dasharray:none;stroke-dashoffset:0;stroke-opacity:0" d="m 230.199333357892 243.131825862456 0.0298 -7.188611 -0.351622 -0.000906 -0.02599 7.189451" id="__YNDW_SXSB__path6368-1-3-0-8" />
      <path style="fill:#ff9494;fill-opacity:0.53721702;stroke:#3f90d5;stroke-width:0;stroke-dasharray:none;stroke-dashoffset:0;stroke-opacity:0" d="m 231.069370357892 236.235892862456 -0.84836 0.735028 0.0024 0.347853 1.267204 -1.084385" id="__YNDW_SXSB__path7247-47" />
      <path style="fill:#ff9494;fill-opacity:0.53721702;stroke:#3f90d5;stroke-width:0;stroke-dasharray:none;stroke-dashoffset:0;stroke-opacity:0" d="m 232.062332357892 236.230640862456 -1.841832 1.4995 -0.0014 0.488015 2.42476 -1.989481" id="__YNDW_SXSB__path7247-4-5" />
      <path style="fill:#ff9494;fill-opacity:0.53721702;stroke:#3f90d5;stroke-width:0;stroke-dasharray:none;stroke-dashoffset:0;stroke-opacity:0" d="m 233.132476357892 236.219434862456 -2.914212 2.64601 -0.000487 0.452085 3.471499 -3.079815" id="__YNDW_SXSB__path7247-0-7" />
      <path style="fill:#ff9494;fill-opacity:0.53721702;stroke:#3f90d5;stroke-width:0;stroke-dasharray:none;stroke-dashoffset:0;stroke-opacity:0" d="m 230.211806357892 239.707530862456 4.043422 -3.478731 0.459452 0.01512 -4.494606 3.799286" id="__YNDW_SXSB__path7349-6" />
      <path style="fill:#ff9494;fill-opacity:0.53721702;stroke:#3f90d5;stroke-width:0;stroke-dasharray:none;stroke-dashoffset:0;stroke-opacity:0" d="m 230.213224357892 240.365178862456 4.936105 -4.131536 0.445754 0.02339 -5.38883 4.556619" id="__YNDW_SXSB__path7351-6" />
      <path style="fill:#ff9494;fill-opacity:0.53721702;stroke:#3f90d5;stroke-width:0;stroke-dasharray:none;stroke-dashoffset:0;stroke-opacity:0" d="m 230.212516357892 241.217350862456 5.869662 -4.978276 0.477997 -0.0034 -6.344943 5.367571" id="__YNDW_SXSB__path7353-0" />
      <path style="fill:#ff9494;fill-opacity:0.53721702;stroke:#3f90d5;stroke-width:0;stroke-dasharray:none;stroke-dashoffset:0;stroke-opacity:0" d="m 230.213224357892 242.053109862456 6.779595 -5.817459 0.404412 -0.01311 -7.194402 6.188213" id="__YNDW_SXSB__path7355-4" />
      <path style="fill:#ff9494;fill-opacity:0.53721702;stroke:#3f90d5;stroke-width:0;stroke-dasharray:none;stroke-dashoffset:0;stroke-opacity:0" d="m 230.200821357892 242.643191862456 7.706891 -6.407913 0.263059 -5.7E-05 -0.0029 0.244148 -7.783395 6.371462 -0.181798 -0.0015" id="__YNDW_SXSB__path7357-3" />
      <path style="fill:#ff9494;fill-opacity:0.53721702;stroke:#3f90d5;stroke-width:0;stroke-dasharray:none;stroke-dashoffset:0;stroke-opacity:0" d="m 230.985432357892 242.849153862456 7.18141 -5.930466 -0.000702 0.572251 -6.791909 5.364062" id="__YNDW_SXSB__path7359-2" />
      <path style="fill:#ff9494;fill-opacity:0.53721702;stroke:#3f90d5;stroke-width:0;stroke-dasharray:none;stroke-dashoffset:0;stroke-opacity:0" d="m 231.821483357892 242.846230862456 6.344713 -4.836663 -0.0036 0.44847 -5.879289 4.39404" id="__YNDW_SXSB__path7361-9" />
      <path style="fill:#ff9494;fill-opacity:0.53721702;stroke:#3f90d5;stroke-width:0;stroke-dasharray:none;stroke-dashoffset:0;stroke-opacity:0" d="m 232.991448357892 242.841142862456 5.173389 -3.802589 -0.0069 0.45455 -4.57822 3.356894" id="__YNDW_SXSB__path7363-5" />
      <path style="fill:#ff9494;fill-opacity:0.53721702;stroke:#3f90d5;stroke-width:0;stroke-dasharray:none;stroke-dashoffset:0;stroke-opacity:0" d="m 234.157326357892 242.854254862456 4.00202 -2.863781 -0.0048 0.497956 -3.479843 2.354721" id="__YNDW_SXSB__path7365-2" />
      <path style="fill:#ff9494;fill-opacity:0.53721702;stroke:#3f90d5;stroke-width:0;stroke-dasharray:none;stroke-dashoffset:0;stroke-opacity:0" d="m 235.466948357892 242.857678862456 2.697181 -1.874654 -0.0097 0.460871 -2.122802 1.413783" id="__YNDW_SXSB__path7367-7" />
      <path style="fill:#ff9494;fill-opacity:0.53721702;stroke:#3f90d5;stroke-width:0;stroke-dasharray:none;stroke-dashoffset:0;stroke-opacity:0" d="m 237.052945357892 242.847405862456 1.102915 -0.812718 -0.007 0.440913 -0.529835 0.365542" id="__YNDW_SXSB__path7369-2" />
    </g>
  </g>
</svg>