<?xml version="1.0" encoding="UTF-8"?>
<svg version="1.1" xmlns="http://www.w3.org/2000/svg" xmlns:xlink="http://www.w3.org/1999/xlink" viewBox="1000,1000,200,200">
  <g id="__YNDW_SXYG__g1143-0" transform="matrix(0.91869718,0,0,0.76279089,0,0)" xmlns="http://www.w3.org/2000/svg">
    <rect style="fill:#b3b3b3;stroke-width:0.26537099" id="__YNDW_SXYG__rect681-7" width="33.26379" height="6.7736154" x="1092.40410993271" y="1325.45719980732" />
    <path style="fill:#b3b3b3;stroke-width:0.39868599" d="m 1125.61594093271 1325.39112880732 -2.35005 -4.56198 -28.607933 0.285125 -2.162044 4.063013 -0.06267 0.356404" id="__YNDW_SXYG__path757-1" />
    <path style="fill:#b3b3b3;stroke-width:0.30418399" id="__YNDW_SXYG__path111-7" d="M 1152.34429229032,1306.11768455486 A 16.771477 14.496073 0 0 1 1135.92160229032 1320.74492455486 16.771477 14.496073 0 0 1 1118.81077629032 1306.71933355486 16.771477 14.496073 0 0 1 1134.84023229032 1291.76976355486 16.771477 14.496073 0 0 1 1152.31944229032 1305.45178655486" transform="matrix(0.9998022,0.01988857,-0.02011354,0.9997977,0,0)" />
    <path style="fill:#cccccc;stroke-width:0.26802799" id="__YNDW_SXYG__path111-1-0" d="M 1125.73142093271,1328.56637280732 A 16.721773 11.288306 0 0 1 1109.35740093271 1339.95682380732 16.721773 11.288306 0 0 1 1092.29728393271 1329.03488580732 16.721773 11.288306 0 0 1 1108.27923093271 1317.39343380732 16.721773 11.288306 0 0 1 1125.70664093271 1328.04782780732" />
    <path style="fill:#e6e6e6;stroke-width:0.26881701" id="__YNDW_SXYG__path111-4-6" d="M 1125.66124093271,1333.98946180732 A 16.721773 11.354838 0 0 1 1109.28722093271 1345.44704380732 16.721773 11.354838 0 0 1 1092.22710093271 1334.46073680732 16.721773 11.354838 0 0 1 1108.20905093271 1322.75067180732 16.721773 11.354838 0 0 1 1125.63646093271 1333.46786080732" />
    <path style="fill:#e9c6af;stroke-width:0.26458299" d="m 1092.24422793271 1329.66893280732 0.133064 11.709681" id="__YNDW_SXYG__path310-5" />
    <path style="fill:#f2f2f2;stroke-width:0.26458299" id="__YNDW_SXYG__path760-3" d="m 1116.77212093271 1342.52730380732 a 8.094758 5.2782259 0 0 1 -7.92642 5.32598 8.094758 5.2782259 0 0 1 -8.25854 -5.10692 8.094758 5.2782259 0 0 1 7.73662 -5.44335 8.094758 5.2782259 0 0 1 8.43634 4.98182" />
    <path style="fill:#ffffff;stroke-width:0.243462" id="__YNDW_SXYG__path762-2" d="m 1113.31259093271 1342.55234380732 a 4.657258 2.5725806 0 0 1 -4.56041 2.59586 4.657258 2.5725806 0 0 1 -4.75149 -2.48908 4.657258 2.5725806 0 0 1 4.45121 -2.65306 4.657258 2.5725806 0 0 1 4.85378 2.42811" />
    <path style="fill:#cccccc;stroke-width:0.26458299" d="m 1100.62729093271 1341.73345380732 -1.41935 -1.59678 0.17741 -0.44355 1.72984 1.86291" id="__YNDW_SXYG__path872-5" />
    <path style="fill:#cccccc;stroke-width:0.26458299" d="m 1101.15955093271 1340.53587380732 -1.95161 -2.21775 -0.44355 -0.62096 0.13306 -0.62097 2.48387 3.2379" id="__YNDW_SXYG__path928-9" />
    <path style="fill:#c8beb7;stroke-width:0.26458299" d="m 1098.90291093271 1337.06935380732 0.60375 -0.0862 1.88181 3.33238" id="__YNDW_SXYG__path986-3" />
    <path style="fill:#cccccc;stroke-width:0.26458299" d="m 1102.25097093271 1339.32753380732 -1.85045 -3.073628 0.28227 -0.65864 1.97591 3.512718" id="__YNDW_SXYG__path1042-9" />
    <path style="fill:#c8beb7;stroke-width:0.26458299" d="m 1100.68279093271 1335.68935580732 0.69 -0.0314 1.31727 3.481358" id="__YNDW_SXYG__path1098-9" />
    <path style="fill:#cccccc;stroke-width:0.26458299" d="m 1104.38370093271 1338.10435380732 -1.59955 -3.700911 0.87819 -0.470453 1.28591 4.045904" id="__YNDW_SXYG__path1100-3" />
    <path style="fill:#c8beb7;stroke-width:0.26458299" d="m 1103.72506093271 1333.90162580732 0.84682 0.344997 0.69 3.293181 -0.31363 0.37637" id="__YNDW_SXYG__path1102-7" />
    <path style="fill:#cccccc;stroke-width:0.26458299" d="m 1106.92415093271 1337.35162380732 -0.56454 -4.234088 0.87818 -0.06273 0.28227 4.328178" id="__YNDW_SXYG__path1104-6" />
    <path style="fill:#c8beb7;stroke-width:0.26458299" d="m 1107.20642093271 1333.02344480732 0.37637 0.345001 0.12545 4.014538 -0.18818 0" id="__YNDW_SXYG__path1106-0" />
    <path style="fill:#c8beb7;stroke-width:0.26458299" d="m 1109.99779093271 1337.47708380732 0.62727 -4.077274 0.75272 -0.345001 -0.90954 4.641815" id="__YNDW_SXYG__path1108-3" />
    <path style="fill:#cccccc;stroke-width:0.26458299" d="m 1111.34642093271 1333.14889980732 0.12546 -0.439089 0.81545 0.188182 -1.19182 5.206361 -0.62727 -0.43909" id="__YNDW_SXYG__path1110-5" />
    <path style="fill:#cccccc;stroke-width:0.26458299" d="m 1114.54551093271 1339.39026380732 1.94454 -5.269091 0.40773 0.43909 -2.16409 5.112271" id="__YNDW_SXYG__path1112-2" />
    <path style="fill:#c8beb7;stroke-width:0.26458299" d="m 1114.57687093271 1339.42162380732 -0.50182 -0.50182 1.38 -4.453631 1.12909 -0.345" id="__YNDW_SXYG__path1114-4" />
    <path style="fill:#c8beb7;stroke-width:0.26458299" d="m 1116.36460093271 1340.80162380732 1.91318 -4.516358 1.66227 -0.0314 -3.01091 5.959078" id="__YNDW_SXYG__path1116-2" />
    <path style="fill:#cccccc;stroke-width:0.26458299" d="m 1119.78323093271 1336.63026380732 0.12545 0.97227 -2.85408 4.95545 -0.15682 -0.47046" id="__YNDW_SXYG__path1118-4" />
  </g>
  <g id="__YNDW_SXYG__g37609" transform="matrix(3.5433071,0,0,3.5433071,0,0)" xmlns="http://www.w3.org/2000/svg">
    <rect style="fill:#c80000;fill-opacity:1;stroke-width:0.0626951" id="__YNDW_SXYG__rect681-7-6" width="8.6245279" height="1.4582005" x="283.235005808673" y="285.339839123449" />
    <path style="fill:#c80000;fill-opacity:1;stroke-width:0.0941914" d="m 291.846055808673 285.325617123449 -0.60931 -0.982088 -7.41737 0.06138 -0.56057 0.874672 -0.0163 0.07673" id="__YNDW_SXYG__path757-1-3" />
    <path style="fill:#c80000;fill-opacity:1;stroke-width:0.0718659" id="__YNDW_SXYG__path111-7-8" d="m 298.757744360296 281.202121576389 a 4.348187 3.1209488 0 0 1 -4.25776 3.149189 4.348187 3.1209488 0 0 1 -4.43617 -3.019656 4.348187 3.1209488 0 0 1 4.15581 -3.218585 4.348187 3.1209488 0 0 1 4.53167 2.945687" transform="matrix(0.99986363,0.01651441,-0.02422231,0.9997066,0,0)" />
    <path style="fill:#ff0000;stroke-width:0.0633228" id="__YNDW_SXYG__path111-1-0-2" d="m 291.876005808673 286.009169123449 a 4.335567 2.4301076 0 0 1 -4.2454 2.452096 4.335567 2.4301076 0 0 1 -4.42329 -2.351236 4.335567 2.4301076 0 0 1 4.14374 -2.506132 4.335567 2.4301076 0 0 1 4.51853 2.293641" />
    <path style="fill:#ff5858;fill-opacity:1;stroke-width:0.0635092" id="__YNDW_SXYG__path111-4-6-1" d="m 291.857805808673 287.176639123449 a 4.335567 2.4444304 0 0 1 -4.24541 2.466548 4.335567 2.4444304 0 0 1 -4.42329 -2.365094 4.335567 2.4444304 0 0 1 4.14375 -2.520903 4.335567 2.4444304 0 0 1 4.51852 2.30716" />
    <path style="fill:#e9c6af;stroke-width:0.0625089" d="m 283.193545808673 286.246528123449 0.0345 2.520819" id="__YNDW_SXYG__path310-5-4" />
    <path style="fill:#ff9292;fill-opacity:1;stroke-width:0.0625089" id="__YNDW_SXYG__path760-3-9" d="m 289.553055808673 289.014631123449 a 2.0987825 1.1362782 0 0 1 -2.05513 1.14656 2.0987825 1.1362782 0 0 1 -2.14125 -1.099399 2.0987825 1.1362782 0 0 1 2.00593 -1.171826 2.0987825 1.1362782 0 0 1 2.18734 1.072469" />
    <path style="fill:#ffffff;stroke-width:0.057519" id="__YNDW_SXYG__path762-2-8" d="m 288.656085808673 289.020027123449 a 1.2075188 0.55381626 0 0 1 -1.18241 0.558827 1.2075188 0.55381626 0 0 1 -1.23195 -0.535841 1.2075188 0.55381626 0 0 1 1.15409 -0.571142 1.2075188 0.55381626 0 0 1 1.25848 0.522716" />
    <path style="fill:#f3a5a5;fill-opacity:1;stroke-width:0.0625089" d="m 285.367085808673 288.843736123449 -0.36801 -0.343749 0.046 -0.09549 0.44851 0.401041" id="__YNDW_SXYG__path872-5-9" />
    <path style="fill:#f3a5a5;fill-opacity:1;stroke-width:0.0625089" d="m 285.505085808673 288.585925123449 -0.50601 -0.47743 -0.115 -0.133678 0.0345 -0.13368 0.64401 0.697044" id="__YNDW_SXYG__path928-9-8" />
    <path style="fill:#e44842;fill-opacity:1;stroke-width:0.0625089" d="m 284.919995808673 287.839665123449 0.15653 -0.01856 0.48791 0.717383" id="__YNDW_SXYG__path986-3-5" />
    <path style="fill:#f3a5a5;fill-opacity:1;stroke-width:0.0625089" d="m 285.788065808673 288.325798123449 -0.47978 -0.66168 0.0732 -0.14179 0.51231 0.756206" id="__YNDW_SXYG__path1042-9-7" />
    <path style="fill:#e44842;fill-opacity:1;stroke-width:0.0625089" d="m 285.381475808673 287.542583123449 0.1789 -0.0068 0.34154 0.749454" id="__YNDW_SXYG__path1098-9-2" />
    <path style="fill:#f3a5a5;fill-opacity:1;stroke-width:0.0625089" d="m 286.341035808673 288.062476123449 -0.41473 -0.79672 0.2277 -0.101277 0.3334 0.870988" id="__YNDW_SXYG__path1100-3-0" />
    <path style="fill:#e44842;fill-opacity:1;stroke-width:0.0625089" d="m 286.170265808673 287.157727123449 0.21956 0.07427 0.1789 0.708944 -0.0813 0.08102" id="__YNDW_SXYG__path1102-7-4" />
    <path style="fill:#f3a5a5;fill-opacity:1;stroke-width:0.0625089" d="m 286.999715808673 287.900431123449 -0.14637 -0.9115 0.22769 -0.0135 0.0732 0.931755" id="__YNDW_SXYG__path1104-6-9" />
    <path style="fill:#e44842;fill-opacity:1;stroke-width:0.0625089" d="m 287.072895808673 286.968675123449 0.0976 0.07427 0.0325 0.864236 -0.0488 0" id="__YNDW_SXYG__path1106-0-7" />
    <path style="fill:#f3a5a5;fill-opacity:1;stroke-width:0.0625089" d="m 287.796635808673 287.927439123449 0.16264 -0.877741 0.19516 -0.07427 -0.23582 0.999274" id="__YNDW_SXYG__path1108-3-1" />
    <path style="fill:#e44842;fill-opacity:1;stroke-width:0.0625089" d="m 288.146305808673 286.995683123449 0.0325 -0.09453 0.21143 0.04051 -0.30902 1.120808 -0.16263 -0.09453" id="__YNDW_SXYG__path1110-5-7" />
    <path style="fill:#e44842;fill-opacity:1;stroke-width:0.0625089" d="m 288.975755808673 288.339302123449 0.50417 -1.134312 0.10572 0.09453 -0.5611 1.100552" id="__YNDW_SXYG__path1112-2-5" />
    <path style="fill:#f3a5a5;fill-opacity:1;stroke-width:0.0625089" d="m 288.983885808673 288.346053123449 -0.13011 -0.10803 0.3578 -0.958762 0.29275 -0.07427" id="__YNDW_SXYG__path1114-4-8" />
    <path style="fill:#f3a5a5;fill-opacity:1;stroke-width:0.0625089" d="m 289.447405808673 288.643135123449 0.49604 -0.972266 0.43099 -0.0068 -0.78066 1.28285" id="__YNDW_SXYG__path1116-2-5" />
    <path style="fill:#e44842;fill-opacity:1;stroke-width:0.0625089" d="m 290.333775808673 287.745139123449 0.0325 0.209307 -0.73999 1.066792 -0.0407 -0.101279" id="__YNDW_SXYG__path1118-4-9" />
  </g>
  <g id="__YNDW_SXYG__g55035" transform="matrix(3.5433071,0,0,3.5433071,0,0)" xmlns="http://www.w3.org/2000/svg">
    <g id="__YNDW_SXYG__g1143-0-5" transform="matrix(0.25927676,0,0,0.21527654,0,0)">
      <rect style="fill:#b3b3b3;stroke-width:0.26537099" id="__YNDW_SXYG__rect681-7-9" width="33.26379" height="6.7736154" x="1091.09211345848" y="1325.35353759588" />
      <path style="fill:#b3b3b3;stroke-width:0.39868599" d="m 1124.30394445848 1325.28746659588 -2.35005 -4.56198 -28.607933 0.285125 -2.162044 4.063013 -0.06267 0.356404" id="__YNDW_SXYG__path757-1-9" />
      <path style="fill:#b3b3b3;stroke-width:0.30418399" id="__YNDW_SXYG__path111-7-9" d="M 1151.03047617895,1306.04013657916 A 16.771477 14.496073 0 0 1 1134.60778617895 1320.66737657916 16.771477 14.496073 0 0 1 1117.49696017895 1306.64178557916 16.771477 14.496073 0 0 1 1133.52641617895 1291.69221557916 16.771477 14.496073 0 0 1 1151.00562617895 1305.37423857916" transform="matrix(0.9998022,0.01988857,-0.02011354,0.9997977,0,0)" />
      <path style="fill:#cccccc;stroke-width:0.26802799" id="__YNDW_SXYG__path111-1-0-3" d="M 1124.41942445848,1328.46271059588 A 16.721773 11.288306 0 0 1 1108.04540445848 1339.85316159588 16.721773 11.288306 0 0 1 1090.98528745848 1328.93122359588 16.721773 11.288306 0 0 1 1106.96723445848 1317.28977159588 16.721773 11.288306 0 0 1 1124.39464445848 1327.94416559588" />
      <path style="fill:#e6e6e6;stroke-width:0.26881701" id="__YNDW_SXYG__path111-4-6-4" d="M 1124.34924445848,1333.88579959588 A 16.721773 11.354838 0 0 1 1107.97522445848 1345.34338159588 16.721773 11.354838 0 0 1 1090.91510445848 1334.35707459588 16.721773 11.354838 0 0 1 1106.89705445848 1322.64700959588 16.721773 11.354838 0 0 1 1124.32446445848 1333.36419859588" />
      <path style="fill:#e9c6af;stroke-width:0.26458299" d="m 1090.93223145848 1329.56527059588 0.133064 11.709681" id="__YNDW_SXYG__path310-5-7" />
      <path style="fill:#f2f2f2;stroke-width:0.26458299" id="__YNDW_SXYG__path760-3-5" d="m 1115.46012445848 1342.42364159588 a 8.094758 5.2782259 0 0 1 -7.92642 5.32598 8.094758 5.2782259 0 0 1 -8.25854 -5.10692 8.094758 5.2782259 0 0 1 7.73662 -5.44335 8.094758 5.2782259 0 0 1 8.43634 4.98182" />
      <path style="fill:#ffffff;stroke-width:0.243462" id="__YNDW_SXYG__path762-2-0" d="m 1112.00059445848 1342.44868159588 a 4.657258 2.5725806 0 0 1 -4.56041 2.59586 4.657258 2.5725806 0 0 1 -4.75149 -2.48908 4.657258 2.5725806 0 0 1 4.45121 -2.65306 4.657258 2.5725806 0 0 1 4.85378 2.42811" />
      <path style="fill:#cccccc;stroke-width:0.26458299" d="m 1099.31529445848 1341.62979159588 -1.41935 -1.59678 0.17741 -0.44355 1.72984 1.86291" id="__YNDW_SXYG__path872-5-6" />
      <path style="fill:#cccccc;stroke-width:0.26458299" d="m 1099.84755445848 1340.43221159588 -1.95161 -2.21775 -0.44355 -0.62096 0.13306 -0.62097 2.48387 3.2379" id="__YNDW_SXYG__path928-9-1" />
      <path style="fill:#c8beb7;stroke-width:0.26458299" d="m 1097.59091445848 1336.96569159588 0.60375 -0.0862 1.88181 3.33238" id="__YNDW_SXYG__path986-3-1" />
      <path style="fill:#cccccc;stroke-width:0.26458299" d="m 1100.93897445848 1339.22387159588 -1.85045 -3.073628 0.28227 -0.65864 1.97591 3.512718" id="__YNDW_SXYG__path1042-9-70" />
      <path style="fill:#c8beb7;stroke-width:0.26458299" d="m 1099.37079445848 1335.58569359588 0.69 -0.0314 1.31727 3.481358" id="__YNDW_SXYG__path1098-9-4" />
      <path style="fill:#cccccc;stroke-width:0.26458299" d="m 1103.07170445848 1338.00069159588 -1.59955 -3.700911 0.87819 -0.470453 1.28591 4.045904" id="__YNDW_SXYG__path1100-3-2" />
      <path style="fill:#c8beb7;stroke-width:0.26458299" d="m 1102.41306445848 1333.79796359588 0.84682 0.344997 0.69 3.293181 -0.31363 0.37637" id="__YNDW_SXYG__path1102-7-7" />
      <path style="fill:#cccccc;stroke-width:0.26458299" d="m 1105.61215445848 1337.24796159588 -0.56454 -4.234088 0.87818 -0.06273 0.28227 4.328178" id="__YNDW_SXYG__path1104-6-1" />
      <path style="fill:#c8beb7;stroke-width:0.26458299" d="m 1105.89442445848 1332.91978259588 0.37637 0.345001 0.12545 4.014538 -0.18818 0" id="__YNDW_SXYG__path1106-0-2" />
      <path style="fill:#c8beb7;stroke-width:0.26458299" d="m 1108.68579445848 1337.37342159588 0.62727 -4.077274 0.75272 -0.345001 -0.90954 4.641815" id="__YNDW_SXYG__path1108-3-4" />
      <path style="fill:#cccccc;stroke-width:0.26458299" d="m 1110.03442445848 1333.04523759588 0.12546 -0.439089 0.81545 0.188182 -1.19182 5.206361 -0.62727 -0.43909" id="__YNDW_SXYG__path1110-5-2" />
      <path style="fill:#cccccc;stroke-width:0.26458299" d="m 1113.23351445848 1339.28660159588 1.94454 -5.269091 0.40773 0.43909 -2.16409 5.112271" id="__YNDW_SXYG__path1112-2-2" />
      <path style="fill:#c8beb7;stroke-width:0.26458299" d="m 1113.26487445848 1339.31796159588 -0.50182 -0.50182 1.38 -4.453631 1.12909 -0.345" id="__YNDW_SXYG__path1114-4-1" />
      <path style="fill:#c8beb7;stroke-width:0.26458299" d="m 1115.05260445848 1340.69796159588 1.91318 -4.516358 1.66227 -0.0314 -3.01091 5.959078" id="__YNDW_SXYG__path1116-2-2" />
      <path style="fill:#cccccc;stroke-width:0.26458299" d="m 1118.47123445848 1336.52660159588 0.12545 0.97227 -2.85408 4.95545 -0.15682 -0.47046" id="__YNDW_SXYG__path1118-4-2" />
    </g>
    <g id="__YNDW_SXYG__g54757-84">
      <path style="fill:#1a1a1a;fill-opacity:1;stroke:#000000;stroke-width:0" d="m 288.177434876679 290.183745710775 4.068348 -0.0078 -2.054095 -3.116573" id="__YNDW_SXYG__path21026-2-3-0-12" />
      <path style="fill:#ffff00;fill-opacity:1;stroke:#000000;stroke-width:0" d="m 288.351398876679 290.078939710775 3.705237 -0.01107 -1.858331 -2.811285" id="__YNDW_SXYG__path21026-27-8-63" />
      <path style="fill:#1a1a1a;fill-opacity:1;stroke:#3f90d5;stroke-width:0;stroke-dasharray:none;stroke-opacity:0" id="__YNDW_SXYG__path54608-3" d="m 290.353083876679 -289.745514710775 a 0.2313066 0.18426119 0 0 1 -0.225895 0.185918 0.2313066 0.18426119 0 0 1 -0.236546 -0.177312 0.2313066 0.18426119 0 0 1 0.219229 -0.190915 0.2313066 0.18426119 0 0 1 0.242724 0.171932" transform="matrix(1,0,0,-1,0,0)" />
      <path style="fill:#1a1a1a;fill-opacity:1;stroke:#3f90d5;stroke-width:0;stroke-dasharray:none;stroke-opacity:0" d="m 290.121003876679 289.454118710775 0.0047 -0.000368 0.376365 -1.234943 c -0.232613 -0.232561 -0.465227 -0.287495 -0.69784 0.01175 z" id="__YNDW_SXYG__path54664-7" />
    </g>
  </g>
  <g id="__YNDW_SXYG__g55080" transform="matrix(3.5433071,0,0,3.5433071,0,0)" xmlns="http://www.w3.org/2000/svg">
    <g id="__YNDW_SXYG__g1143-0-4" transform="matrix(0.25927676,0,0,0.21527654,0,0)">
      <rect style="fill:#b3b3b3;stroke-width:0.26537099" id="__YNDW_SXYG__rect681-7-7" width="33.26379" height="6.7736154" x="1092.44383467429" y="1325.79644137109" />
      <path style="fill:#b3b3b3;stroke-width:0.39868599" d="m 1125.65566567429 1325.73037037109 -2.35005 -4.56198 -28.607933 0.285125 -2.162044 4.063013 -0.06267 0.356404" id="__YNDW_SXYG__path757-1-1" />
      <path style="fill:#b3b3b3;stroke-width:0.30418399" id="__YNDW_SXYG__path111-7-7" d="M 1152.39083234576,1306.45606895864 A 16.771477 14.496073 0 0 1 1135.96814234576 1321.08330895864 16.771477 14.496073 0 0 1 1118.85731634576 1307.05771795864 16.771477 14.496073 0 0 1 1134.88677234576 1292.10814795864 16.771477 14.496073 0 0 1 1152.36598234576 1305.79017095864" transform="matrix(0.9998022,0.01988857,-0.02011354,0.9997977,0,0)" />
      <path style="fill:#cccccc;stroke-width:0.26802799" id="__YNDW_SXYG__path111-1-0-5" d="M 1125.77114567429,1328.90561437109 A 16.721773 11.288306 0 0 1 1109.39712567429 1340.29606537109 16.721773 11.288306 0 0 1 1092.33700867429 1329.37412737109 16.721773 11.288306 0 0 1 1108.31895567429 1317.73267537109 16.721773 11.288306 0 0 1 1125.74636567429 1328.38706937109" />
      <path style="fill:#e6e6e6;stroke-width:0.26881701" id="__YNDW_SXYG__path111-4-6-2" d="M 1125.70096567429,1334.32870337109 A 16.721773 11.354838 0 0 1 1109.32694567429 1345.78628537109 16.721773 11.354838 0 0 1 1092.26682567429 1334.79997837109 16.721773 11.354838 0 0 1 1108.24877567429 1323.08991337109 16.721773 11.354838 0 0 1 1125.67618567429 1333.80710237109" />
      <path style="fill:#e9c6af;stroke-width:0.26458299" d="m 1092.28395267429 1330.00817437109 0.133064 11.709681" id="__YNDW_SXYG__path310-5-8" />
      <path style="fill:#f2f2f2;stroke-width:0.26458299" id="__YNDW_SXYG__path760-3-7" d="m 1116.81184567429 1342.86654537109 a 8.094758 5.2782259 0 0 1 -7.92642 5.32598 8.094758 5.2782259 0 0 1 -8.25854 -5.10692 8.094758 5.2782259 0 0 1 7.73662 -5.44335 8.094758 5.2782259 0 0 1 8.43634 4.98182" />
      <path style="fill:#ffffff;stroke-width:0.243462" id="__YNDW_SXYG__path762-2-3" d="m 1113.35231567429 1342.89158537109 a 4.657258 2.5725806 0 0 1 -4.56041 2.59586 4.657258 2.5725806 0 0 1 -4.75149 -2.48908 4.657258 2.5725806 0 0 1 4.45121 -2.65306 4.657258 2.5725806 0 0 1 4.85378 2.42811" />
      <path style="fill:#cccccc;stroke-width:0.26458299" d="m 1100.66701567429 1342.07269537109 -1.41935 -1.59678 0.17741 -0.44355 1.72984 1.86291" id="__YNDW_SXYG__path872-5-8" />
      <path style="fill:#cccccc;stroke-width:0.26458299" d="m 1101.19927567429 1340.87511537109 -1.95161 -2.21775 -0.44355 -0.62096 0.13306 -0.62097 2.48387 3.2379" id="__YNDW_SXYG__path928-9-9" />
      <path style="fill:#c8beb7;stroke-width:0.26458299" d="m 1098.94263567429 1337.40859537109 0.60375 -0.0862 1.88181 3.33238" id="__YNDW_SXYG__path986-3-8" />
      <path style="fill:#cccccc;stroke-width:0.26458299" d="m 1102.29069567429 1339.66677537109 -1.85045 -3.073628 0.28227 -0.65864 1.97591 3.512718" id="__YNDW_SXYG__path1042-9-5" />
      <path style="fill:#c8beb7;stroke-width:0.26458299" d="m 1100.72251567429 1336.02859737109 0.69 -0.0314 1.31727 3.481358" id="__YNDW_SXYG__path1098-9-9" />
      <path style="fill:#cccccc;stroke-width:0.26458299" d="m 1104.42342567429 1338.44359537109 -1.59955 -3.700911 0.87819 -0.470453 1.28591 4.045904" id="__YNDW_SXYG__path1100-3-9" />
      <path style="fill:#c8beb7;stroke-width:0.26458299" d="m 1103.76478567429 1334.24086737109 0.84682 0.344997 0.69 3.293181 -0.31363 0.37637" id="__YNDW_SXYG__path1102-7-8" />
      <path style="fill:#cccccc;stroke-width:0.26458299" d="m 1106.96387567429 1337.69086537109 -0.56454 -4.234088 0.87818 -0.06273 0.28227 4.328178" id="__YNDW_SXYG__path1104-6-5" />
      <path style="fill:#c8beb7;stroke-width:0.26458299" d="m 1107.24614567429 1333.36268637109 0.37637 0.345001 0.12545 4.014538 -0.18818 0" id="__YNDW_SXYG__path1106-0-3" />
      <path style="fill:#c8beb7;stroke-width:0.26458299" d="m 1110.03751567429 1337.81632537109 0.62727 -4.077274 0.75272 -0.345001 -0.90954 4.641815" id="__YNDW_SXYG__path1108-3-0" />
      <path style="fill:#cccccc;stroke-width:0.26458299" d="m 1111.38614567429 1333.48814137109 0.12546 -0.439089 0.81545 0.188182 -1.19182 5.206361 -0.62727 -0.43909" id="__YNDW_SXYG__path1110-5-5" />
      <path style="fill:#cccccc;stroke-width:0.26458299" d="m 1114.58523567429 1339.72950537109 1.94454 -5.269091 0.40773 0.43909 -2.16409 5.112271" id="__YNDW_SXYG__path1112-2-56" />
      <path style="fill:#c8beb7;stroke-width:0.26458299" d="m 1114.61659567429 1339.76086537109 -0.50182 -0.50182 1.38 -4.453631 1.12909 -0.345" id="__YNDW_SXYG__path1114-4-3" />
      <path style="fill:#c8beb7;stroke-width:0.26458299" d="m 1116.40432567429 1341.14086537109 1.91318 -4.516358 1.66227 -0.0314 -3.01091 5.959078" id="__YNDW_SXYG__path1116-2-59" />
      <path style="fill:#cccccc;stroke-width:0.26458299" d="m 1119.82295567429 1336.96950537109 0.12545 0.97227 -2.85408 4.95545 -0.15682 -0.47046" id="__YNDW_SXYG__path1118-4-8" />
    </g>
    <g id="__YNDW_SXYG__g7427" transform="matrix(1.2278458,0,0,1.1961507,0,0)">
      <path style="fill:#ff9494;fill-opacity:0.53721702;stroke:#3f90d5;stroke-width:0;stroke-dasharray:none;stroke-dashoffset:0;stroke-opacity:0" d="m 238.174512206157 235.944528141223 -7.944653 -0.0025 0 0.29262 7.940402 0.000368" id="__YNDW_SXYG__path6368-27-68" />
      <path style="fill:#ff9494;fill-opacity:0.53721702;stroke:#3f90d5;stroke-width:0;stroke-dasharray:none;stroke-dashoffset:0;stroke-opacity:0" d="m 238.148973206157 242.847201141223 -7.947757 -0.0025 0 0.29262 7.948674 -0.000666" id="__YNDW_SXYG__path6368-1-2" />
      <path style="fill:#ff9494;fill-opacity:0.53721702;stroke:#3f90d5;stroke-width:0;stroke-dasharray:none;stroke-dashoffset:0;stroke-opacity:0" d="m 238.493842206157 243.132419141223 0.0298 -7.183119 -0.351623 -0.000906 -0.02599 7.183959" id="__YNDW_SXYG__path6368-27-44-6" />
      <path style="fill:#ff9494;fill-opacity:0.53721702;stroke:#3f90d5;stroke-width:0;stroke-dasharray:none;stroke-dashoffset:0;stroke-opacity:0" d="m 230.199330206157 243.131825141223 0.0298 -7.188611 -0.351622 -0.000906 -0.02599 7.189451" id="__YNDW_SXYG__path6368-1-3-0" />
      <path style="fill:#ff9494;fill-opacity:0.53721702;stroke:#3f90d5;stroke-width:0;stroke-dasharray:none;stroke-dashoffset:0;stroke-opacity:0" d="m 231.069367206157 236.235892141223 -0.84836 0.735028 0.0024 0.347853 1.267204 -1.084385" id="__YNDW_SXYG__path7247" />
      <path style="fill:#ff9494;fill-opacity:0.53721702;stroke:#3f90d5;stroke-width:0;stroke-dasharray:none;stroke-dashoffset:0;stroke-opacity:0" d="m 232.062329206157 236.230640141223 -1.841832 1.4995 -0.0014 0.488015 2.42476 -1.989481" id="__YNDW_SXYG__path7247-4" />
      <path style="fill:#ff9494;fill-opacity:0.53721702;stroke:#3f90d5;stroke-width:0;stroke-dasharray:none;stroke-dashoffset:0;stroke-opacity:0" d="m 233.132473206157 236.219434141223 -2.914212 2.64601 -0.000487 0.452085 3.471499 -3.079815" id="__YNDW_SXYG__path7247-0" />
      <path style="fill:#ff9494;fill-opacity:0.53721702;stroke:#3f90d5;stroke-width:0;stroke-dasharray:none;stroke-dashoffset:0;stroke-opacity:0" d="m 230.211803206157 239.707530141223 4.043422 -3.478731 0.459452 0.01512 -4.494606 3.799286" id="__YNDW_SXYG__path7349" />
      <path style="fill:#ff9494;fill-opacity:0.53721702;stroke:#3f90d5;stroke-width:0;stroke-dasharray:none;stroke-dashoffset:0;stroke-opacity:0" d="m 230.213221206157 240.365178141223 4.936105 -4.131536 0.445754 0.02339 -5.38883 4.556619" id="__YNDW_SXYG__path7351" />
      <path style="fill:#ff9494;fill-opacity:0.53721702;stroke:#3f90d5;stroke-width:0;stroke-dasharray:none;stroke-dashoffset:0;stroke-opacity:0" d="m 230.212513206157 241.217350141223 5.869662 -4.978276 0.477997 -0.0034 -6.344943 5.367571" id="__YNDW_SXYG__path7353" />
      <path style="fill:#ff9494;fill-opacity:0.53721702;stroke:#3f90d5;stroke-width:0;stroke-dasharray:none;stroke-dashoffset:0;stroke-opacity:0" d="m 230.213221206157 242.053109141223 6.779595 -5.817459 0.404412 -0.01311 -7.194402 6.188213" id="__YNDW_SXYG__path7355" />
      <path style="fill:#ff9494;fill-opacity:0.53721702;stroke:#3f90d5;stroke-width:0;stroke-dasharray:none;stroke-dashoffset:0;stroke-opacity:0" d="m 230.200818206157 242.643191141223 7.706891 -6.407913 0.263059 -5.7E-05 -0.0029 0.244148 -7.783395 6.371462 -0.181798 -0.0015" id="__YNDW_SXYG__path7357" />
      <path style="fill:#ff9494;fill-opacity:0.53721702;stroke:#3f90d5;stroke-width:0;stroke-dasharray:none;stroke-dashoffset:0;stroke-opacity:0" d="m 230.985429206157 242.849153141223 7.18141 -5.930466 -0.000702 0.572251 -6.791909 5.364062" id="__YNDW_SXYG__path7359" />
      <path style="fill:#ff9494;fill-opacity:0.53721702;stroke:#3f90d5;stroke-width:0;stroke-dasharray:none;stroke-dashoffset:0;stroke-opacity:0" d="m 231.821480206157 242.846230141223 6.344713 -4.836663 -0.0036 0.44847 -5.879289 4.39404" id="__YNDW_SXYG__path7361" />
      <path style="fill:#ff9494;fill-opacity:0.53721702;stroke:#3f90d5;stroke-width:0;stroke-dasharray:none;stroke-dashoffset:0;stroke-opacity:0" d="m 232.991445206157 242.841142141223 5.173389 -3.802589 -0.0069 0.45455 -4.57822 3.356894" id="__YNDW_SXYG__path7363" />
      <path style="fill:#ff9494;fill-opacity:0.53721702;stroke:#3f90d5;stroke-width:0;stroke-dasharray:none;stroke-dashoffset:0;stroke-opacity:0" d="m 234.157323206157 242.854254141223 4.00202 -2.863781 -0.0048 0.497956 -3.479843 2.354721" id="__YNDW_SXYG__path7365" />
      <path style="fill:#ff9494;fill-opacity:0.53721702;stroke:#3f90d5;stroke-width:0;stroke-dasharray:none;stroke-dashoffset:0;stroke-opacity:0" d="m 235.466945206157 242.857678141223 2.697181 -1.874654 -0.0097 0.460871 -2.122802 1.413783" id="__YNDW_SXYG__path7367" />
      <path style="fill:#ff9494;fill-opacity:0.53721702;stroke:#3f90d5;stroke-width:0;stroke-dasharray:none;stroke-dashoffset:0;stroke-opacity:0" d="m 237.052942206157 242.847405141223 1.102915 -0.812718 -0.007 0.440913 -0.529835 0.365542" id="__YNDW_SXYG__path7369" />
    </g>
  </g>
</svg>