<?xml version="1.0" encoding="UTF-8"?>
<svg version="1.1" xmlns="http://www.w3.org/2000/svg" xmlns:xlink="http://www.w3.org/1999/xlink" viewBox="1000,1000,200,200">
  <g id="__YNDW_SXSG__g3113-8" transform="matrix(0.89237405,0,0,0.61482954,0,0)" xmlns="http://www.w3.org/2000/svg">
    <g id="__YNDW_SXSG__g2852-9">
      <rect style="fill:#e6e6e6;stroke-width:0.18048" id="__YNDW_SXSG__rect2840-9" width="7.1995487" height="3.7516773" x="649.25363388246" y="1043.14927376736" transform="matrix(1.7475696,0,0,1.6020097,0,0)" />
      <g id="__YNDW_SXSG__g2781-2" transform="matrix(1.7475696,0,0,1.6020097,0,0)" style="fill:#b3b3b3">
        <rect style="fill:#b3b3b3;stroke-width:0.27758199" id="__YNDW_SXSG__rect2721-0" width="7.6706352" height="1.4967093" x="648.99444488246" y="1046.34650376735" />
        <path style="fill:#b3b3b3;stroke-width:0.26458299" id="__YNDW_SXSG__path2531-5" d="m 656.66250588246 1047.73193376736 a 3.8364582 1.5378906 0 0 1 -1.928759 1.34856 3.8364582 1.5378906 0 0 1 -3.877675 -0.0147 3.8364582 1.5378906 0 0 1 -1.864795 -1.36295" />
        <path style="fill:#b3b3b3;stroke-width:0.26458299" id="__YNDW_SXSG__path2531-1-9" d="m 656.67904288246 1046.32634376735 a 3.8364582 1.5378906 0 0 1 -1.899343 1.34173 3.8364582 1.5378906 0 0 1 -3.848451 0.006 3.8364582 1.5378906 0 0 1 -1.924953 -1.33586" />
      </g>
    </g>
    <g id="__YNDW_SXSG__g2781-7-7" transform="matrix(3.9190717,0,0,1.6020097,0,0)" style="fill:#b3b3b3">
      <rect style="fill:#b3b3b3;stroke-width:0.27758199" id="__YNDW_SXSG__rect2721-4-8" width="7.6706352" height="1.4967093" x="287.294450685473" y="1040.84388415151" />
      <path style="fill:#b3b3b3;stroke-width:0.26458299" id="__YNDW_SXSG__path2531-17-91" d="m 294.962511685473 1042.22931415151 a 3.8364582 1.5378906 0 0 1 -1.928759 1.34856 3.8364582 1.5378906 0 0 1 -3.877675 -0.0147 3.8364582 1.5378906 0 0 1 -1.864795 -1.36295" />
      <path style="fill:#b3b3b3;stroke-width:0.26458299" id="__YNDW_SXSG__path2531-1-8-1" d="m 294.979048685473 1040.82372415151 a 3.8364582 1.5378906 0 0 1 -1.899343 1.34173 3.8364582 1.5378906 0 0 1 -3.848451 0.006 3.8364582 1.5378906 0 0 1 -1.924953 -1.33586" />
    </g>
    <g id="__YNDW_SXSG__g2781-7-3-5" transform="matrix(3.9190716,0,0,-1.6407279,0,0)" style="fill:#b3b3b3">
      <rect style="fill:#b3b3b3;stroke-width:0.27758199" id="__YNDW_SXSG__rect2721-4-0-5" width="7.6706352" height="1.4967093" x="287.28984893872" y="-1013.45154103601" />
      <path style="fill:#b3b3b3;stroke-width:0.26458299" id="__YNDW_SXSG__path2531-17-9-8" d="m 294.95790993872 -1012.06611103601 a 3.8364582 1.5378906 0 0 1 -1.928759 1.34856 3.8364582 1.5378906 0 0 1 -3.877675 -0.0147 3.8364582 1.5378906 0 0 1 -1.864795 -1.36295" />
      <path style="fill:#b3b3b3;stroke-width:0.26458299" id="__YNDW_SXSG__path2531-1-8-8-1" d="m 294.97444693872 -1013.47170103601 a 3.8364582 1.5378906 0 0 1 -1.899343 1.34173 3.8364582 1.5378906 0 0 1 -3.848451 0.006 3.8364582 1.5378906 0 0 1 -1.924953 -1.33586" />
    </g>
    <rect style="fill:#e6e6e6;stroke-width:0.48862699" id="__YNDW_SXSG__rect2943-9" width="30.758322" height="9.0751762" x="1125.49522412847" y="1660.37991822416" />
    <path style="fill:#e6e6e6;stroke-width:0.32963899" id="__YNDW_SXSG__path3038-9" d="m 1154.93780312847 -1646.30439822416 a 14.288898 14.834821 0 0 1 -7.07411 12.94269 14.288898 14.834821 0 0 1 -14.333565 0.0571 14.288898 14.834821 0 0 1 -7.169491 -12.886" transform="matrix(1,0,0,-1,0,0)" />
    <path style="fill:#e6e6e6;stroke-width:0.26458299" d="m 1126.34064212847 1646.08429822416 -0.463021 14.15521 4.101041 -1.38906 20.902084 -0.19844 4.960937 1.65365 L 1154.91564112847,1646.15044822416" id="__YNDW_SXSG__path3094-5" />
  </g>
  <g id="__YNDW_SXSG__g55105" transform="matrix(3.5433071,0,0,3.5433071,0,0)" xmlns="http://www.w3.org/2000/svg">
    <g id="__YNDW_SXSG__g3113-8-9" transform="matrix(0.25184779,0,0,0.17351856,0,0)">
      <g id="__YNDW_SXSG__g2852-9-9">
        <rect style="fill:#e6e6e6;stroke-width:0.18048" id="__YNDW_SXSG__rect2840-9-1" width="7.1995487" height="3.7516773" x="647.868327428485" y="1043.149271978" transform="matrix(1.7475696,0,0,1.6020097,0,0)" />
        <g id="__YNDW_SXSG__g2781-2-3" transform="matrix(1.7475696,0,0,1.6020097,0,0)" style="fill:#b3b3b3">
          <rect style="fill:#b3b3b3;stroke-width:0.27758199" id="__YNDW_SXSG__rect2721-0-6" width="7.6706352" height="1.4967093" x="647.609138428485" y="1046.346501978" />
          <path style="fill:#b3b3b3;stroke-width:0.26458299" id="__YNDW_SXSG__path2531-5-3" d="m 655.277199428485 1047.731931978 a 3.8364582 1.5378906 0 0 1 -1.928759 1.34856 3.8364582 1.5378906 0 0 1 -3.877675 -0.0147 3.8364582 1.5378906 0 0 1 -1.864795 -1.36295" />
          <path style="fill:#b3b3b3;stroke-width:0.26458299" id="__YNDW_SXSG__path2531-1-9-3" d="m 655.293736428485 1046.326341978 a 3.8364582 1.5378906 0 0 1 -1.899343 1.34173 3.8364582 1.5378906 0 0 1 -3.848451 0.006 3.8364582 1.5378906 0 0 1 -1.924953 -1.33586" />
        </g>
      </g>
      <g id="__YNDW_SXSG__g2781-7-7-4" transform="matrix(3.9190717,0,0,1.6020097,0,0)" style="fill:#b3b3b3">
        <rect style="fill:#b3b3b3;stroke-width:0.27758199" id="__YNDW_SXSG__rect2721-4-8-5" width="7.6706352" height="1.4967093" x="286.676722909364" y="1040.84388236215" />
        <path style="fill:#b3b3b3;stroke-width:0.26458299" id="__YNDW_SXSG__path2531-17-91-5" d="m 294.344783909364 1042.22931236215 a 3.8364582 1.5378906 0 0 1 -1.928759 1.34856 3.8364582 1.5378906 0 0 1 -3.877675 -0.0147 3.8364582 1.5378906 0 0 1 -1.864795 -1.36295" />
        <path style="fill:#b3b3b3;stroke-width:0.26458299" id="__YNDW_SXSG__path2531-1-8-1-9" d="m 294.361320909364 1040.82372236215 a 3.8364582 1.5378906 0 0 1 -1.899343 1.34173 3.8364582 1.5378906 0 0 1 -3.848451 0.006 3.8364582 1.5378906 0 0 1 -1.924953 -1.33586" />
      </g>
      <g id="__YNDW_SXSG__g2781-7-3-5-3" transform="matrix(3.9190716,0,0,-1.6407279,0,0)" style="fill:#b3b3b3">
        <rect style="fill:#b3b3b3;stroke-width:0.27758199" id="__YNDW_SXSG__rect2721-4-0-5-9" width="7.6706352" height="1.4967093" x="286.67212114685" y="-1013.45153928888" />
        <path style="fill:#b3b3b3;stroke-width:0.26458299" id="__YNDW_SXSG__path2531-17-9-8-4" d="m 294.34018214685 -1012.06610928888 a 3.8364582 1.5378906 0 0 1 -1.928759 1.34856 3.8364582 1.5378906 0 0 1 -3.877675 -0.0147 3.8364582 1.5378906 0 0 1 -1.864795 -1.36295" />
        <path style="fill:#b3b3b3;stroke-width:0.26458299" id="__YNDW_SXSG__path2531-1-8-8-1-0" d="m 294.35671914685 -1013.47169928888 a 3.8364582 1.5378906 0 0 1 -1.899343 1.34173 3.8364582 1.5378906 0 0 1 -3.848451 0.006 3.8364582 1.5378906 0 0 1 -1.924953 -1.33586" />
      </g>
      <rect style="fill:#e6e6e6;stroke-width:0.48862699" id="__YNDW_SXSG__rect2943-9-7" width="30.758322" height="9.0751762" x="1123.07430468281" y="1660.3799153576" />
      <path style="fill:#e6e6e6;stroke-width:0.32963899" id="__YNDW_SXSG__path3038-9-8" d="m 1152.51688368281 -1646.3043953576 a 14.288898 14.834821 0 0 1 -7.07411 12.94269 14.288898 14.834821 0 0 1 -14.333565 0.0571 14.288898 14.834821 0 0 1 -7.169491 -12.886" transform="matrix(1,0,0,-1,0,0)" />
      <path style="fill:#e6e6e6;stroke-width:0.26458299" d="m 1123.91972268281 1646.0842953576 -0.463021 14.15521 4.101041 -1.38906 20.902084 -0.19844 4.960937 1.65365 L 1152.49472168281,1646.1504453576" id="__YNDW_SXSG__path3094-5-7" />
    </g>
    <g id="__YNDW_SXSG__g54757-7">
      <path style="fill:#1a1a1a;fill-opacity:1;stroke:#000000;stroke-width:0" d="m 287.741244520736 291.022430989809 4.068348 -0.0078 -2.054095 -3.116573" id="__YNDW_SXSG__path21026-2-3-0-0" />
      <path style="fill:#ffff00;fill-opacity:1;stroke:#000000;stroke-width:0" d="m 287.915208520736 290.917624989809 3.705237 -0.01107 -1.858331 -2.811285" id="__YNDW_SXSG__path21026-27-8-3" />
      <path style="fill:#1a1a1a;fill-opacity:1;stroke:#3f90d5;stroke-width:0;stroke-dasharray:none;stroke-opacity:0" id="__YNDW_SXSG__path54608-2" d="m 289.916893520736 -290.584199989809 a 0.2313066 0.18426119 0 0 1 -0.225895 0.185918 0.2313066 0.18426119 0 0 1 -0.236546 -0.177312 0.2313066 0.18426119 0 0 1 0.219229 -0.190915 0.2313066 0.18426119 0 0 1 0.242724 0.171932" transform="matrix(1,0,0,-1,0,0)" />
      <path style="fill:#1a1a1a;fill-opacity:1;stroke:#3f90d5;stroke-width:0;stroke-dasharray:none;stroke-opacity:0" d="m 289.684813520736 290.292803989809 0.0047 -0.000368 0.376365 -1.234943 c -0.232613 -0.232561 -0.465227 -0.287495 -0.69784 0.01175 z" id="__YNDW_SXSG__path54664-11" />
    </g>
  </g>
  <g id="__YNDW_SXSG__g23284" transform="matrix(3.5433071,0,0,3.5433071,0,0)" xmlns="http://www.w3.org/2000/svg">
    <g id="__YNDW_SXSG__g2852-9-3" transform="matrix(0.25184779,0,0,0.17351856,0,0)">
      <rect style="fill:#e6e6e6;stroke-width:0.18048" id="__YNDW_SXSG__rect2840-9-2" width="7.1995487" height="3.7516773" x="649.25362872331" y="1043.14928724404" transform="matrix(1.7475696,0,0,1.6020097,0,0)" />
      <g id="__YNDW_SXSG__g2781-2-1" transform="matrix(1.7475696,0,0,1.6020097,0,0)" style="fill:#b3b3b3">
        <rect style="fill:#b3b3b3;stroke-width:0.27758199" id="__YNDW_SXSG__rect2721-0-9" width="7.6706352" height="1.4967093" x="648.99443972331" y="1046.34651724404" />
        <path style="fill:#b3b3b3;stroke-width:0.26458299" id="__YNDW_SXSG__path2531-5-0" d="m 656.66250072331 1047.73194724404 a 3.8364582 1.5378906 0 0 1 -1.928759 1.34856 3.8364582 1.5378906 0 0 1 -3.877675 -0.0147 3.8364582 1.5378906 0 0 1 -1.864795 -1.36295" />
        <path style="fill:#b3b3b3;stroke-width:0.26458299" id="__YNDW_SXSG__path2531-1-9-5" d="m 656.67903772331 1046.32635724404 a 3.8364582 1.5378906 0 0 1 -1.899343 1.34173 3.8364582 1.5378906 0 0 1 -3.848451 0.006 3.8364582 1.5378906 0 0 1 -1.924953 -1.33586" />
      </g>
    </g>
    <g id="__YNDW_SXSG__g2781-7-7-1" transform="matrix(0.98700955,0,0,0.27797842,0,0)" style="fill:#b3b3b3">
      <rect style="fill:#b3b3b3;stroke-width:0.27758199" id="__YNDW_SXSG__rect2721-4-8-2" width="7.6706352" height="1.4967093" x="287.294447058317" y="1040.84388474358" />
      <path style="fill:#b3b3b3;stroke-width:0.26458299" id="__YNDW_SXSG__path2531-17-91-0" d="m 294.962508058317 1042.22931474358 a 3.8364582 1.5378906 0 0 1 -1.928759 1.34856 3.8364582 1.5378906 0 0 1 -3.877675 -0.0147 3.8364582 1.5378906 0 0 1 -1.864795 -1.36295" />
      <path style="fill:#b3b3b3;stroke-width:0.26458299" id="__YNDW_SXSG__path2531-1-8-1-5" d="m 294.979045058317 1040.82372474358 a 3.8364582 1.5378906 0 0 1 -1.899343 1.34173 3.8364582 1.5378906 0 0 1 -3.848451 0.006 3.8364582 1.5378906 0 0 1 -1.924953 -1.33586" />
    </g>
    <g id="__YNDW_SXSG__g2781-7-3-5-8" transform="matrix(0.98700952,0,0,-0.28469674,0,0)" style="fill:#b3b3b3">
      <rect style="fill:#b3b3b3;stroke-width:0.27758199" id="__YNDW_SXSG__rect2721-4-0-5-7" width="7.6706352" height="1.4967093" x="287.289846927913" y="-1013.45155927535" />
      <path style="fill:#b3b3b3;stroke-width:0.26458299" id="__YNDW_SXSG__path2531-17-9-8-7" d="m 294.957907927913 -1012.06612927535 a 3.8364582 1.5378906 0 0 1 -1.928759 1.34856 3.8364582 1.5378906 0 0 1 -3.877675 -0.0147 3.8364582 1.5378906 0 0 1 -1.864795 -1.36295" />
      <path style="fill:#b3b3b3;stroke-width:0.26458299" id="__YNDW_SXSG__path2531-1-8-8-1-2" d="m 294.974444927913 -1013.47171927535 a 3.8364582 1.5378906 0 0 1 -1.899343 1.34173 3.8364582 1.5378906 0 0 1 -3.848451 0.006 3.8364582 1.5378906 0 0 1 -1.924953 -1.33586" />
    </g>
    <rect style="fill:#e6e6e6;stroke-width:0.102146" id="__YNDW_SXSG__rect2943-9-1" width="7.7464151" height="1.5747116" x="283.453481462238" y="288.106737233439" />
    <path style="fill:#ff5555;stroke-width:0.0689097" id="__YNDW_SXSG__path3038-9-6" d="m 290.868530462238 -285.664370233439 a 3.5986276 2.5741167 0 0 1 -1.781598 2.245797 3.5986276 2.5741167 0 0 1 -3.609877 0.0099 3.5986276 2.5741167 0 0 1 -1.805621 -2.235959" transform="matrix(1,0,0,-1,0,0)" />
    <path style="fill:#ff5555;stroke-width:0.05531" d="m 283.688576462238 285.526383233439 -0.138788 2.555984 1.032838 -0.24103 5.264144 -0.0344 1.249401 0.28694 -0.255399 -2.533807" id="__YNDW_SXSG__path3094-5-6" />
  </g>
  <g id="__YNDW_SXSG__g55004" transform="matrix(3.5433071,0,0,3.5433071,0,0)" xmlns="http://www.w3.org/2000/svg">
    <g id="__YNDW_SXSG__g3113-8-8" transform="matrix(0.25184779,0,0,0.17351856,0,0)">
      <g id="__YNDW_SXSG__g2852-9-2">
        <rect style="fill:#e6e6e6;stroke-width:0.18048" id="__YNDW_SXSG__rect2840-9-17" width="7.1995487" height="3.7516773" x="649.324885585852" y="1043.03645802501" transform="matrix(1.7475696,0,0,1.6020097,0,0)" />
        <g id="__YNDW_SXSG__g2781-2-18" transform="matrix(1.7475696,0,0,1.6020097,0,0)" style="fill:#b3b3b3">
          <rect style="fill:#b3b3b3;stroke-width:0.27758199" id="__YNDW_SXSG__rect2721-0-7" width="7.6706352" height="1.4967093" x="649.065696585852" y="1046.23368802501" />
          <path style="fill:#b3b3b3;stroke-width:0.26458299" id="__YNDW_SXSG__path2531-5-9" d="m 656.733757585852 1047.61911802501 a 3.8364582 1.5378906 0 0 1 -1.928759 1.34856 3.8364582 1.5378906 0 0 1 -3.877675 -0.0147 3.8364582 1.5378906 0 0 1 -1.864795 -1.36295" />
          <path style="fill:#b3b3b3;stroke-width:0.26458299" id="__YNDW_SXSG__path2531-1-9-57" d="m 656.750294585852 1046.21352802501 a 3.8364582 1.5378906 0 0 1 -1.899343 1.34173 3.8364582 1.5378906 0 0 1 -3.848451 0.006 3.8364582 1.5378906 0 0 1 -1.924953 -1.33586" />
        </g>
      </g>
      <g id="__YNDW_SXSG__g2781-7-7-5" transform="matrix(3.9190717,0,0,1.6020097,0,0)" style="fill:#b3b3b3">
        <rect style="fill:#b3b3b3;stroke-width:0.27758199" id="__YNDW_SXSG__rect2721-4-8-7" width="7.6706352" height="1.4967093" x="287.326222829574" y="1040.73106840916" />
        <path style="fill:#b3b3b3;stroke-width:0.26458299" id="__YNDW_SXSG__path2531-17-91-1" d="m 294.994283829574 1042.11649840916 a 3.8364582 1.5378906 0 0 1 -1.928759 1.34856 3.8364582 1.5378906 0 0 1 -3.877675 -0.0147 3.8364582 1.5378906 0 0 1 -1.864795 -1.36295" />
        <path style="fill:#b3b3b3;stroke-width:0.26458299" id="__YNDW_SXSG__path2531-1-8-1-7" d="m 295.010820829574 1040.71090840916 a 3.8364582 1.5378906 0 0 1 -1.899343 1.34173 3.8364582 1.5378906 0 0 1 -3.848451 0.006 3.8364582 1.5378906 0 0 1 -1.924953 -1.33586" />
      </g>
      <g id="__YNDW_SXSG__g2781-7-3-5-87" transform="matrix(3.9190716,0,0,-1.6407279,0,0)" style="fill:#b3b3b3">
        <rect style="fill:#b3b3b3;stroke-width:0.27758199" id="__YNDW_SXSG__rect2721-4-0-5-75" width="7.6706352" height="1.4967093" x="287.321621083632" y="-1013.34138754039" />
        <path style="fill:#b3b3b3;stroke-width:0.26458299" id="__YNDW_SXSG__path2531-17-9-8-9" d="m 294.989682083632 -1011.95595754039 a 3.8364582 1.5378906 0 0 1 -1.928759 1.34856 3.8364582 1.5378906 0 0 1 -3.877675 -0.0147 3.8364582 1.5378906 0 0 1 -1.864795 -1.36295" />
        <path style="fill:#b3b3b3;stroke-width:0.26458299" id="__YNDW_SXSG__path2531-1-8-8-1-3" d="m 295.006219083632 -1013.36154754039 a 3.8364582 1.5378906 0 0 1 -1.899343 1.34173 3.8364582 1.5378906 0 0 1 -3.848451 0.006 3.8364582 1.5378906 0 0 1 -1.924953 -1.33586" />
      </g>
      <rect style="fill:#e6e6e6;stroke-width:0.48862699" id="__YNDW_SXSG__rect2943-9-6" width="30.758322" height="9.0751762" x="1125.61974143926" y="1660.19918631061" />
      <path style="fill:#e6e6e6;stroke-width:0.32963899" id="__YNDW_SXSG__path3038-9-84" d="m 1155.06232043926 -1646.12366631061 a 14.288898 14.834821 0 0 1 -7.07411 12.94269 14.288898 14.834821 0 0 1 -14.333565 0.0571 14.288898 14.834821 0 0 1 -7.169491 -12.886" transform="matrix(1,0,0,-1,0,0)" />
      <path style="fill:#e6e6e6;stroke-width:0.26458299" d="m 1126.46515943926 1645.90356631061 -0.463021 14.15521 4.101041 -1.38906 20.902084 -0.19844 4.960937 1.65365 L 1155.04015843926,1645.96971631061" id="__YNDW_SXSG__path3094-5-8" />
    </g>
    <g id="__YNDW_SXSG__g7427-2-0" transform="matrix(1.1772134,0,0,1.4315316,0,0)">
      <path style="fill:#ff9494;fill-opacity:0.53721702;stroke:#3f90d5;stroke-width:0;stroke-dasharray:none;stroke-dashoffset:0;stroke-opacity:0" d="m 248.060513470954 197.149541943613 -7.944653 -0.0025 0 0.29262 7.940402 0.000368" id="__YNDW_SXSG__path6368-27-68-3-9" />
      <path style="fill:#ff9494;fill-opacity:0.53721702;stroke:#3f90d5;stroke-width:0;stroke-dasharray:none;stroke-dashoffset:0;stroke-opacity:0" d="m 248.034974470954 204.052214943613 -7.947757 -0.0025 0 0.29262 7.948674 -0.000666" id="__YNDW_SXSG__path6368-1-2-4-7" />
      <path style="fill:#ff9494;fill-opacity:0.53721702;stroke:#3f90d5;stroke-width:0;stroke-dasharray:none;stroke-dashoffset:0;stroke-opacity:0" d="m 248.379843470954 204.337432943613 0.0298 -7.183119 -0.351623 -0.000906 -0.02599 7.183959" id="__YNDW_SXSG__path6368-27-44-6-8-1" />
      <path style="fill:#ff9494;fill-opacity:0.53721702;stroke:#3f90d5;stroke-width:0;stroke-dasharray:none;stroke-dashoffset:0;stroke-opacity:0" d="m 240.085331470954 204.336838943613 0.0298 -7.188611 -0.351622 -0.000906 -0.02599 7.189451" id="__YNDW_SXSG__path6368-1-3-0-8-1" />
      <path style="fill:#ff9494;fill-opacity:0.53721702;stroke:#3f90d5;stroke-width:0;stroke-dasharray:none;stroke-dashoffset:0;stroke-opacity:0" d="m 240.955368470954 197.440905943613 -0.84836 0.735028 0.0024 0.347853 1.267204 -1.084385" id="__YNDW_SXSG__path7247-47-6" />
      <path style="fill:#ff9494;fill-opacity:0.53721702;stroke:#3f90d5;stroke-width:0;stroke-dasharray:none;stroke-dashoffset:0;stroke-opacity:0" d="m 241.948330470954 197.435653943613 -1.841832 1.4995 -0.0014 0.488015 2.42476 -1.989481" id="__YNDW_SXSG__path7247-4-5-6" />
      <path style="fill:#ff9494;fill-opacity:0.53721702;stroke:#3f90d5;stroke-width:0;stroke-dasharray:none;stroke-dashoffset:0;stroke-opacity:0" d="m 243.018474470954 197.424447943613 -2.914212 2.64601 -0.000487 0.452085 3.471499 -3.079815" id="__YNDW_SXSG__path7247-0-7-8" />
      <path style="fill:#ff9494;fill-opacity:0.53721702;stroke:#3f90d5;stroke-width:0;stroke-dasharray:none;stroke-dashoffset:0;stroke-opacity:0" d="m 240.097804470954 200.912543943613 4.043422 -3.478731 0.459452 0.01512 -4.494606 3.799286" id="__YNDW_SXSG__path7349-6-5" />
      <path style="fill:#ff9494;fill-opacity:0.53721702;stroke:#3f90d5;stroke-width:0;stroke-dasharray:none;stroke-dashoffset:0;stroke-opacity:0" d="m 240.099222470954 201.570191943613 4.936105 -4.131536 0.445754 0.02339 -5.38883 4.556619" id="__YNDW_SXSG__path7351-6-3" />
      <path style="fill:#ff9494;fill-opacity:0.53721702;stroke:#3f90d5;stroke-width:0;stroke-dasharray:none;stroke-dashoffset:0;stroke-opacity:0" d="m 240.098514470954 202.422363943613 5.869662 -4.978276 0.477997 -0.0034 -6.344943 5.367571" id="__YNDW_SXSG__path7353-0-5" />
      <path style="fill:#ff9494;fill-opacity:0.53721702;stroke:#3f90d5;stroke-width:0;stroke-dasharray:none;stroke-dashoffset:0;stroke-opacity:0" d="m 240.099222470954 203.258122943613 6.779595 -5.817459 0.404412 -0.01311 -7.194402 6.188213" id="__YNDW_SXSG__path7355-4-1" />
      <path style="fill:#ff9494;fill-opacity:0.53721702;stroke:#3f90d5;stroke-width:0;stroke-dasharray:none;stroke-dashoffset:0;stroke-opacity:0" d="m 240.086819470954 203.848204943613 7.706891 -6.407913 0.263059 -5.7E-05 -0.0029 0.244148 -7.783395 6.371462 -0.181798 -0.0015" id="__YNDW_SXSG__path7357-3-5" />
      <path style="fill:#ff9494;fill-opacity:0.53721702;stroke:#3f90d5;stroke-width:0;stroke-dasharray:none;stroke-dashoffset:0;stroke-opacity:0" d="m 240.871430470954 204.054166943613 7.18141 -5.930466 -0.000702 0.572251 -6.791909 5.364062" id="__YNDW_SXSG__path7359-2-2" />
      <path style="fill:#ff9494;fill-opacity:0.53721702;stroke:#3f90d5;stroke-width:0;stroke-dasharray:none;stroke-dashoffset:0;stroke-opacity:0" d="m 241.707481470954 204.051243943613 6.344713 -4.836663 -0.0036 0.44847 -5.879289 4.39404" id="__YNDW_SXSG__path7361-9-2" />
      <path style="fill:#ff9494;fill-opacity:0.53721702;stroke:#3f90d5;stroke-width:0;stroke-dasharray:none;stroke-dashoffset:0;stroke-opacity:0" d="m 242.877446470954 204.046155943613 5.173389 -3.802589 -0.0069 0.45455 -4.57822 3.356894" id="__YNDW_SXSG__path7363-5-0" />
      <path style="fill:#ff9494;fill-opacity:0.53721702;stroke:#3f90d5;stroke-width:0;stroke-dasharray:none;stroke-dashoffset:0;stroke-opacity:0" d="m 244.043324470954 204.059267943613 4.00202 -2.863781 -0.0048 0.497956 -3.479843 2.354721" id="__YNDW_SXSG__path7365-2-0" />
      <path style="fill:#ff9494;fill-opacity:0.53721702;stroke:#3f90d5;stroke-width:0;stroke-dasharray:none;stroke-dashoffset:0;stroke-opacity:0" d="m 245.352946470954 204.062691943613 2.697181 -1.874654 -0.0097 0.460871 -2.122802 1.413783" id="__YNDW_SXSG__path7367-7-9" />
      <path style="fill:#ff9494;fill-opacity:0.53721702;stroke:#3f90d5;stroke-width:0;stroke-dasharray:none;stroke-dashoffset:0;stroke-opacity:0" d="m 246.938943470954 204.052418943613 1.102915 -0.812718 -0.007 0.440913 -0.529835 0.365542" id="__YNDW_SXSG__path7369-2-9" />
    </g>
  </g>
</svg>